ISO-10303-21;
HEADER;
FILE_DESCRIPTION (( 'STEP AP214' ),
    '1' );
FILE_NAME ('01FixedFrame.STEP',
    '2026-09-28T14:37:01',
    ( '' ),
    ( '' ),
    'SwSTEP 2.0',
    'SolidWorks 2026',
    '' );
FILE_SCHEMA (( 'AUTOMOTIVE_DESIGN' ));
ENDSEC;

DATA;
#1 = DIRECTION ( 'NONE',  ( 1.000000000000000000, 1.261617073437677999E-16, -0.000000000000000000 ) ) ;
#2 = LINE ( 'NONE', #607, #725 ) ;
#3 = ORIENTED_EDGE ( 'NONE', *, *, #594, .F. ) ;
#4 = LINE ( 'NONE', #202, #294 ) ;
#5 = DIRECTION ( 'NONE',  ( 1.000000000000000000, 0.000000000000000000, 0.000000000000000000 ) ) ;
#6 = DIRECTION ( 'NONE',  ( 0.000000000000000000, -0.000000000000000000, -1.000000000000000000 ) ) ;
#7 = ORIENTED_EDGE ( 'NONE', *, *, #473, .F. ) ;
#8 = FACE_OUTER_BOUND ( 'NONE', #49, .T. ) ;
#9 = DIRECTION ( 'NONE',  ( 0.000000000000000000, 0.000000000000000000, 1.000000000000000000 ) ) ;
#10 = LINE ( 'NONE', #249, #547 ) ;
#11 = DIRECTION ( 'NONE',  ( -0.000000000000000000, 0.000000000000000000, 1.000000000000000000 ) ) ;
#12 = ORIENTED_EDGE ( 'NONE', *, *, #152, .F. ) ;
#13 = AXIS2_PLACEMENT_3D ( 'NONE', #621, #333, #628 ) ;
#14 = VECTOR ( 'NONE', #479, 1000.000000000000000 ) ;
#15 = DIRECTION ( 'NONE',  ( 1.000000000000000000, 0.000000000000000000, 0.000000000000000000 ) ) ;
#16 = EDGE_CURVE ( 'NONE', #451, #223, #709, .T. ) ;
#17 = CYLINDRICAL_SURFACE ( 'NONE', #589, 5.000000000000000888 ) ;
#18 = FACE_OUTER_BOUND ( 'NONE', #178, .T. ) ;
#19 = VERTEX_POINT ( 'NONE', #461 ) ;
#20 = CARTESIAN_POINT ( 'NONE',  ( -20.00000000000000355, 22.49999999999999645, 0.000000000000000000 ) ) ;
#21 = FACE_BOUND ( 'NONE', #492, .T. ) ;
#22 = EDGE_LOOP ( 'NONE', ( #501, #443, #732, #71 ) ) ;
#23 = DIRECTION ( 'NONE',  ( -0.000000000000000000, -0.000000000000000000, 1.000000000000000000 ) ) ;
#24 = CARTESIAN_POINT ( 'NONE',  ( 27.49999999999999645, 27.49999999999999645, 5.000000000000000000 ) ) ;
#25 = CARTESIAN_POINT ( 'NONE',  ( 22.50000000000000711, -22.49999999999999289, 0.000000000000000000 ) ) ;
#26 = ORIENTED_EDGE ( 'NONE', *, *, #221, .T. ) ;
#27 = EDGE_CURVE ( 'NONE', #551, #465, #115, .T. ) ;
#28 = AXIS2_PLACEMENT_3D ( 'NONE', #731, #560, #206 ) ;
#29 = VECTOR ( 'NONE', #310, 1000.000000000000000 ) ;
#30 = CARTESIAN_POINT ( 'NONE',  ( 22.50000000000000355, -22.50000000000000711, 5.000000000000000000 ) ) ;
#31 =( LENGTH_UNIT ( ) NAMED_UNIT ( * ) SI_UNIT ( .MILLI., .METRE. ) );
#32 = ORIENTED_EDGE ( 'NONE', *, *, #152, .T. ) ;
#33 = EDGE_CURVE ( 'NONE', #163, #433, #284, .T. ) ;
#34 = CARTESIAN_POINT ( 'NONE',  ( 22.50000000000000711, -27.50000000000000355, 0.000000000000000000 ) ) ;
#35 = EDGE_LOOP ( 'NONE', ( #362, #278 ) ) ;
#36 = CARTESIAN_POINT ( 'NONE',  ( 0.000000000000000000, 20.00000000000000355, 0.000000000000000000 ) ) ;
#37 = EDGE_LOOP ( 'NONE', ( #42, #659, #217, #90 ) ) ;
#38 = VECTOR ( 'NONE', #557, 1000.000000000000000 ) ;
#39 = EDGE_CURVE ( 'NONE', #266, #564, #100, .T. ) ;
#40 = DIRECTION ( 'NONE',  ( -0.000000000000000000, -0.000000000000000000, 1.000000000000000000 ) ) ;
#41 = VECTOR ( 'NONE', #654, 1000.000000000000000 ) ;
#42 = ORIENTED_EDGE ( 'NONE', *, *, #271, .F. ) ;
#43 = DIRECTION ( 'NONE',  ( 1.000000000000000000, 0.000000000000000000, 0.000000000000000000 ) ) ;
#44 = VERTEX_POINT ( 'NONE', #588 ) ;
#45 = CARTESIAN_POINT ( 'NONE',  ( -22.49999999999999645, -27.50000000000000355, 5.000000000000000000 ) ) ;
#46 = ORIENTED_EDGE ( 'NONE', *, *, #247, .T. ) ;
#47 = EDGE_CURVE ( 'NONE', #285, #94, #2, .T. ) ;
#48 = DIRECTION ( 'NONE',  ( -0.000000000000000000, -0.000000000000000000, 1.000000000000000000 ) ) ;
#49 = EDGE_LOOP ( 'NONE', ( #352, #107, #184, #75 ) ) ;
#50 = VECTOR ( 'NONE', #403, 1000.000000000000000 ) ;
#51 = ADVANCED_BREP_SHAPE_REPRESENTATION ( '01FixedFrame', ( #215, #578 ), #155 ) ;
#52 = DIRECTION ( 'NONE',  ( 0.000000000000000000, -0.000000000000000000, 1.000000000000000000 ) ) ;
#53 = DIRECTION ( 'NONE',  ( 1.000000000000000000, 0.000000000000000000, 0.000000000000000000 ) ) ;
#54 = ORIENTED_EDGE ( 'NONE', *, *, #33, .F. ) ;
#55 = APPLICATION_CONTEXT ( 'automotive_design' ) ;
#56 = CARTESIAN_POINT ( 'NONE',  ( -27.49999999999999645, -27.50000000000000355, 0.000000000000000000 ) ) ;
#57 = CARTESIAN_POINT ( 'NONE',  ( 22.49999999999999645, 22.50000000000000355, 0.000000000000000000 ) ) ;
#58 = ORIENTED_EDGE ( 'NONE', *, *, #381, .F. ) ;
#59 = FACE_OUTER_BOUND ( 'NONE', #698, .T. ) ;
#60 = EDGE_CURVE ( 'NONE', #551, #86, #62, .T. ) ;
#61 = AXIS2_PLACEMENT_3D ( 'NONE', #533, #1, #238 ) ;
#62 = LINE ( 'NONE', #300, #237 ) ;
#63 = AXIS2_PLACEMENT_3D ( 'NONE', #423, #552, #262 ) ;
#64 = CARTESIAN_POINT ( 'NONE',  ( 25.00000000000000355, -22.49999999999999289, 5.000000000000000000 ) ) ;
#65 = FACE_OUTER_BOUND ( 'NONE', #67, .T. ) ;
#66 = CARTESIAN_POINT ( 'NONE',  ( 22.50000000000000711, -27.50000000000000355, 5.000000000000000000 ) ) ;
#67 = EDGE_LOOP ( 'NONE', ( #251, #205, #738, #527, #214, #332, #324, #26 ) ) ;
#68 = DIRECTION ( 'NONE',  ( -0.000000000000000000, -0.000000000000000000, 1.000000000000000000 ) ) ;
#69 = PLANE ( 'NONE',  #521 ) ;
#70 = FACE_OUTER_BOUND ( 'NONE', #586, .T. ) ;
#71 = ORIENTED_EDGE ( 'NONE', *, *, #247, .F. ) ;
#72 = EDGE_CURVE ( 'NONE', #556, #465, #373, .T. ) ;
#73 = PLANE ( 'NONE',  #726 ) ;
#74 = CARTESIAN_POINT ( 'NONE',  ( 22.49999999999999645, 22.50000000000000355, 5.000000000000000000 ) ) ;
#75 = ORIENTED_EDGE ( 'NONE', *, *, #60, .T. ) ;
#76 = AXIS2_PLACEMENT_3D ( 'NONE', #528, #463, #640 ) ;
#77 = COLOUR_RGB ( '',0.7921568627450980005, 0.8196078431372548767, 0.9333333333333333481 ) ;
#78 = DIRECTION ( 'NONE',  ( 0.000000000000000000, -0.000000000000000000, -1.000000000000000000 ) ) ;
#79 = LINE ( 'NONE', #371, #694 ) ;
#80 = DIRECTION ( 'NONE',  ( -0.000000000000000000, 0.000000000000000000, 1.000000000000000000 ) ) ;
#81 = VERTEX_POINT ( 'NONE', #639 ) ;
#82 = DIRECTION ( 'NONE',  ( 1.000000000000000000, 0.000000000000000000, 0.000000000000000000 ) ) ;
#83 = EDGE_CURVE ( 'NONE', #270, #154, #295, .T. ) ;
#84 = CARTESIAN_POINT ( 'NONE',  ( -22.49999999999999645, -22.50000000000000355, 5.000000000000000000 ) ) ;
#85 = DIRECTION ( 'NONE',  ( 1.000000000000000000, 0.000000000000000000, 0.000000000000000000 ) ) ;
#86 = VERTEX_POINT ( 'NONE', #487 ) ;
#87 = PRODUCT_CONTEXT ( 'NONE', #55, 'mechanical' ) ;
#88 = DIRECTION ( 'NONE',  ( 0.000000000000000000, -0.000000000000000000, -1.000000000000000000 ) ) ;
#89 = EDGE_CURVE ( 'NONE', #356, #266, #196, .T. ) ;
#90 = ORIENTED_EDGE ( 'NONE', *, *, #741, .T. ) ;
#91 = CIRCLE ( 'NONE', #265, 2.500000000000002220 ) ;
#92 = CIRCLE ( 'NONE', #398, 2.500000000000092371 ) ;
#93 = PRESENTATION_STYLE_ASSIGNMENT (( #616 ) ) ;
#94 = VERTEX_POINT ( 'NONE', #550 ) ;
#95 = CYLINDRICAL_SURFACE ( 'NONE', #212, 2.500000000000002220 ) ;
#96 = ORIENTED_EDGE ( 'NONE', *, *, #369, .F. ) ;
#97 = ADVANCED_FACE ( 'NONE', ( #598, #21, #602, #118, #18, #183 ), #491, .T. ) ;
#98 = ORIENTED_EDGE ( 'NONE', *, *, #89, .T. ) ;
#99 = DIRECTION ( 'NONE',  ( 0.000000000000000000, -1.000000000000000000, 0.000000000000000000 ) ) ;
#100 = CIRCLE ( 'NONE', #485, 2.500000000000092371 ) ;
#101 = AXIS2_PLACEMENT_3D ( 'NONE', #25, #386, #672 ) ;
#102 = EDGE_LOOP ( 'NONE', ( #735, #524 ) ) ;
#103 = CARTESIAN_POINT ( 'NONE',  ( 27.49999999999999645, 27.49999999999999645, 0.000000000000000000 ) ) ;
#104 = EDGE_CURVE ( 'NONE', #19, #556, #676, .T. ) ;
#105 = ORIENTED_EDGE ( 'NONE', *, *, #414, .F. ) ;
#106 = CARTESIAN_POINT ( 'NONE',  ( 25.00000000000008882, 22.50000000000000355, 0.000000000000000000 ) ) ;
#107 = ORIENTED_EDGE ( 'NONE', *, *, #72, .T. ) ;
#108 = ADVANCED_FACE ( 'NONE', ( #70 ), #245, .F. ) ;
#109 = DIRECTION ( 'NONE',  ( 0.000000000000000000, -1.000000000000000000, 0.000000000000000000 ) ) ;
#110 = VECTOR ( 'NONE', #258, 1000.000000000000000 ) ;
#111 = ORIENTED_EDGE ( 'NONE', *, *, #583, .F. ) ;
#112 = AXIS2_PLACEMENT_3D ( 'NONE', #126, #643, #11 ) ;
#113 = DIRECTION ( 'NONE',  ( -0.000000000000000000, -0.000000000000000000, 1.000000000000000000 ) ) ;
#114 = CARTESIAN_POINT ( 'NONE',  ( -22.49999999999999289, -22.50000000000000711, 5.000000000000000000 ) ) ;
#115 = LINE ( 'NONE', #688, #50 ) ;
#116 = EDGE_CURVE ( 'NONE', #515, #536, #545, .T. ) ;
#117 = LINE ( 'NONE', #56, #197 ) ;
#118 = FACE_BOUND ( 'NONE', #476, .T. ) ;
#119 = CARTESIAN_POINT ( 'NONE',  ( 22.50000000000000711, -22.49999999999999289, 5.000000000000000000 ) ) ;
#120 = CARTESIAN_POINT ( 'NONE',  ( 22.50000000000000711, -22.49999999999999289, 0.000000000000000000 ) ) ;
#121 = CIRCLE ( 'NONE', #388, 2.499999999999998668 ) ;
#122 = FACE_OUTER_BOUND ( 'NONE', #232, .T. ) ;
#123 = VERTEX_POINT ( 'NONE', #716 ) ;
#124 = AXIS2_PLACEMENT_3D ( 'NONE', #259, #649, #421 ) ;
#125 = CARTESIAN_POINT ( 'NONE',  ( 20.00000000000000000, 20.00000000000000355, 5.000000000000000000 ) ) ;
#126 = CARTESIAN_POINT ( 'NONE',  ( 20.00000000000000000, 0.000000000000000000, 0.000000000000000000 ) ) ;
#127 = EDGE_CURVE ( 'NONE', #574, #515, #348, .T. ) ;
#128 = EDGE_LOOP ( 'NONE', ( #111, #702, #208, #349 ) ) ;
#129 =( NAMED_UNIT ( * ) SI_UNIT ( $, .STERADIAN. ) SOLID_ANGLE_UNIT ( ) );
#130 =( LENGTH_UNIT ( ) NAMED_UNIT ( * ) SI_UNIT ( .MILLI., .METRE. ) );
#131 = CARTESIAN_POINT ( 'NONE',  ( -19.99999999999998934, -22.50000000000000711, 0.000000000000000000 ) ) ;
#132 = ORIENTED_EDGE ( 'NONE', *, *, #594, .T. ) ;
#133 = LINE ( 'NONE', #493, #685 ) ;
#134 = CARTESIAN_POINT ( 'NONE',  ( -22.50000000000000355, 22.49999999999999645, 5.000000000000000000 ) ) ;
#135 = DIRECTION ( 'NONE',  ( 1.000000000000000000, 0.000000000000000000, 0.000000000000000000 ) ) ;
#136 = ORIENTED_EDGE ( 'NONE', *, *, #221, .F. ) ;
#137 = ADVANCED_FACE ( 'NONE', ( #192 ), #361, .F. ) ;
#138 = LINE ( 'NONE', #489, #201 ) ;
#139 = DIRECTION ( 'NONE',  ( 0.000000000000000000, 0.000000000000000000, -1.000000000000000000 ) ) ;
#140 = ORIENTED_EDGE ( 'NONE', *, *, #395, .T. ) ;
#141 = ADVANCED_FACE ( 'NONE', ( #355 ), #475, .T. ) ;
#142 = LINE ( 'NONE', #103, #708 ) ;
#143 = LINE ( 'NONE', #303, #645 ) ;
#144 = VERTEX_POINT ( 'NONE', #701 ) ;
#145 = DIRECTION ( 'NONE',  ( 0.000000000000000000, 0.000000000000000000, -1.000000000000000000 ) ) ;
#146 = CARTESIAN_POINT ( 'NONE',  ( -27.49999999999999645, -22.50000000000000711, 0.000000000000000000 ) ) ;
#147 = ORIENTED_EDGE ( 'NONE', *, *, #641, .F. ) ;
#148 = VECTOR ( 'NONE', #591, 1000.000000000000000 ) ;
#149 = AXIS2_PLACEMENT_3D ( 'NONE', #189, #80, #555 ) ;
#150 = CARTESIAN_POINT ( 'NONE',  ( -24.99999999999999289, -22.50000000000000711, 0.000000000000000000 ) ) ;
#151 = ORIENTED_EDGE ( 'NONE', *, *, #660, .T. ) ;
#152 = EDGE_CURVE ( 'NONE', #154, #94, #250, .T. ) ;
#153 = ORIENTED_EDGE ( 'NONE', *, *, #671, .F. ) ;
#154 = VERTEX_POINT ( 'NONE', #417 ) ;
#155 =( GEOMETRIC_REPRESENTATION_CONTEXT ( 3 ) GLOBAL_UNCERTAINTY_ASSIGNED_CONTEXT ( ( #336 ) ) GLOBAL_UNIT_ASSIGNED_CONTEXT ( ( #130, #600, #424 ) ) REPRESENTATION_CONTEXT ( 'NONE', 'WORKASPACE' ) );
#156 = ADVANCED_FACE ( 'NONE', ( #122 ), #204, .T. ) ;
#157 = FACE_OUTER_BOUND ( 'NONE', #488, .T. ) ;
#158 = CIRCLE ( 'NONE', #592, 5.000000000000000888 ) ;
#159 = EDGE_LOOP ( 'NONE', ( #474, #302, #153, #46 ) ) ;
#160 = ORIENTED_EDGE ( 'NONE', *, *, #47, .T. ) ;
#161 = EDGE_CURVE ( 'NONE', #356, #625, #92, .T. ) ;
#162 = DIRECTION ( 'NONE',  ( 0.000000000000000000, 0.000000000000000000, 1.000000000000000000 ) ) ;
#163 = VERTEX_POINT ( 'NONE', #669 ) ;
#164 = DIRECTION ( 'NONE',  ( -1.000000000000000000, -0.000000000000000000, -0.000000000000000000 ) ) ;
#165 = EDGE_LOOP ( 'NONE', ( #412, #438 ) ) ;
#166 = LINE ( 'NONE', #407, #346 ) ;
#167 = AXIS2_PLACEMENT_3D ( 'NONE', #450, #40, #511 ) ;
#168 = VERTEX_POINT ( 'NONE', #146 ) ;
#169 = MECHANICAL_DESIGN_GEOMETRIC_PRESENTATION_REPRESENTATION (  '', ( #571 ), #200 ) ;
#170 = EDGE_CURVE ( 'NONE', #515, #574, #759, .T. ) ;
#171 = CARTESIAN_POINT ( 'NONE',  ( -27.50000000000000355, 27.49999999999999645, 0.000000000000000000 ) ) ;
#172 = CARTESIAN_POINT ( 'NONE',  ( 20.00000000000000711, -22.49999999999999289, 0.000000000000000000 ) ) ;
#173 = ORIENTED_EDGE ( 'NONE', *, *, #60, .F. ) ;
#174 = EDGE_LOOP ( 'NONE', ( #464, #599, #320, #577 ) ) ;
#175 = CARTESIAN_POINT ( 'NONE',  ( 27.50000000000000355, -22.50000000000000711, 5.000000000000000000 ) ) ;
#176 = DIRECTION ( 'NONE',  ( -0.000000000000000000, -0.000000000000000000, 1.000000000000000000 ) ) ;
#177 = CARTESIAN_POINT ( 'NONE',  ( 0.000000000000000000, -19.99999999999999645, 5.000000000000000000 ) ) ;
#178 = EDGE_LOOP ( 'NONE', ( #620, #517, #673, #582, #618, #368, #686, #467 ) ) ;
#179 = PLANE ( 'NONE',  #326 ) ;
#180 = EDGE_CURVE ( 'NONE', #228, #392, #734, .T. ) ;
#181 = CARTESIAN_POINT ( 'NONE',  ( -22.50000000000000355, 27.49999999999999645, 5.000000000000000000 ) ) ;
#182 = CIRCLE ( 'NONE', #683, 5.000000000000000888 ) ;
#183 = FACE_BOUND ( 'NONE', #729, .T. ) ;
#184 = ORIENTED_EDGE ( 'NONE', *, *, #27, .F. ) ;
#185 = AXIS2_PLACEMENT_3D ( 'NONE', #646, #609, #257 ) ;
#186 = CARTESIAN_POINT ( 'NONE',  ( -27.50000000000000355, 22.49999999999999645, 0.000000000000000000 ) ) ;
#187 = EDGE_CURVE ( 'NONE', #433, #163, #222, .T. ) ;
#188 = DIRECTION ( 'NONE',  ( -0.000000000000000000, -0.000000000000000000, 1.000000000000000000 ) ) ;
#189 = CARTESIAN_POINT ( 'NONE',  ( 0.000000000000000000, 0.000000000000000000, 5.000000000000000000 ) ) ;
#190 = EDGE_LOOP ( 'NONE', ( #291, #98, #449, #506 ) ) ;
#191 = CARTESIAN_POINT ( 'NONE',  ( -20.00000000000000355, 22.49999999999999645, 0.000000000000000000 ) ) ;
#192 = FACE_OUTER_BOUND ( 'NONE', #622, .T. ) ;
#193 = ORIENTED_EDGE ( 'NONE', *, *, #16, .F. ) ;
#194 = DIRECTION ( 'NONE',  ( 0.000000000000000000, -0.000000000000000000, 1.000000000000000000 ) ) ;
#195 = FACE_OUTER_BOUND ( 'NONE', #190, .T. ) ;
#196 = LINE ( 'NONE', #316, #695 ) ;
#197 = VECTOR ( 'NONE', #243, 1000.000000000000000 ) ;
#198 = ORIENTED_EDGE ( 'NONE', *, *, #280, .T. ) ;
#199 = EDGE_CURVE ( 'NONE', #465, #740, #437, .T. ) ;
#200 =( GEOMETRIC_REPRESENTATION_CONTEXT ( 3 ) GLOBAL_UNCERTAINTY_ASSIGNED_CONTEXT ( ( #377 ) ) GLOBAL_UNIT_ASSIGNED_CONTEXT ( ( #31, #665, #129 ) ) REPRESENTATION_CONTEXT ( 'NONE', 'WORKASPACE' ) );
#201 = VECTOR ( 'NONE', #667, 1000.000000000000000 ) ;
#202 = CARTESIAN_POINT ( 'NONE',  ( 22.50000000000000000, 27.49999999999999645, 5.000000000000000000 ) ) ;
#203 = FACE_OUTER_BOUND ( 'NONE', #380, .T. ) ;
#204 = CYLINDRICAL_SURFACE ( 'NONE', #561, 5.000000000000000888 ) ;
#205 = ORIENTED_EDGE ( 'NONE', *, *, #354, .T. ) ;
#206 = DIRECTION ( 'NONE',  ( 0.000000000000000000, -0.000000000000000000, -1.000000000000000000 ) ) ;
#207 = CARTESIAN_POINT ( 'NONE',  ( -22.50000000000000355, 22.49999999999999645, 5.000000000000000000 ) ) ;
#208 = ORIENTED_EDGE ( 'NONE', *, *, #699, .T. ) ;
#209 = EDGE_CURVE ( 'NONE', #670, #236, #213, .T. ) ;
#210 = DIRECTION ( 'NONE',  ( 0.000000000000000000, -1.000000000000000000, 0.000000000000000000 ) ) ;
#211 = ORIENTED_EDGE ( 'NONE', *, *, #127, .F. ) ;
#212 = AXIS2_PLACEMENT_3D ( 'NONE', #682, #516, #43 ) ;
#213 = CIRCLE ( 'NONE', #408, 5.000000000000000888 ) ;
#214 = ORIENTED_EDGE ( 'NONE', *, *, #510, .F. ) ;
#215 = MANIFOLD_SOLID_BREP ( 'Cut-Extrude3', #375 ) ;
#216 = DIRECTION ( 'NONE',  ( 0.000000000000000000, -0.000000000000000000, -1.000000000000000000 ) ) ;
#217 = ORIENTED_EDGE ( 'NONE', *, *, #314, .T. ) ;
#218 = EDGE_CURVE ( 'NONE', #44, #633, #143, .T. ) ;
#219 = CARTESIAN_POINT ( 'NONE',  ( -19.99999999999998934, -22.50000000000000711, 0.000000000000000000 ) ) ;
#220 = ORIENTED_EDGE ( 'NONE', *, *, #427, .T. ) ;
#221 = EDGE_CURVE ( 'NONE', #86, #168, #276, .T. ) ;
#222 = CIRCLE ( 'NONE', #101, 2.499999999999998668 ) ;
#223 = VERTEX_POINT ( 'NONE', #20 ) ;
#224 = PRODUCT_DEFINITION_CONTEXT ( 'detailed design', #651, 'design' ) ;
#225 = LINE ( 'NONE', #287, #282 ) ;
#226 = DIRECTION ( 'NONE',  ( -0.000000000000000000, -0.000000000000000000, 1.000000000000000000 ) ) ;
#227 = VERTEX_POINT ( 'NONE', #64 ) ;
#228 = VERTEX_POINT ( 'NONE', #710 ) ;
#229 = LINE ( 'NONE', #752, #512 ) ;
#230 = EDGE_CURVE ( 'NONE', #163, #227, #429, .T. ) ;
#231 = FACE_OUTER_BOUND ( 'NONE', #546, .T. ) ;
#232 = EDGE_LOOP ( 'NONE', ( #585, #612, #573, #272 ) ) ;
#233 = AXIS2_PLACEMENT_3D ( 'NONE', #499, #727, #382 ) ;
#234 = LINE ( 'NONE', #353, #457 ) ;
#235 = DIRECTION ( 'NONE',  ( 1.000000000000000000, 0.000000000000000000, 0.000000000000000000 ) ) ;
#236 = VERTEX_POINT ( 'NONE', #656 ) ;
#237 = VECTOR ( 'NONE', #426, 1000.000000000000000 ) ;
#238 = DIRECTION ( 'NONE',  ( -1.261617073437677999E-16, 1.000000000000000000, 0.000000000000000000 ) ) ;
#239 = CARTESIAN_POINT ( 'NONE',  ( -20.00000000000000000, 0.000000000000000000, 0.000000000000000000 ) ) ;
#240 = EDGE_LOOP ( 'NONE', ( #567, #595, #400, #650 ) ) ;
#241 = ADVANCED_FACE ( 'NONE', ( #8 ), #179, .F. ) ;
#242 = FACE_OUTER_BOUND ( 'NONE', #22, .T. ) ;
#243 = DIRECTION ( 'NONE',  ( 1.000000000000000000, 0.000000000000000000, 0.000000000000000000 ) ) ;
#244 = CARTESIAN_POINT ( 'NONE',  ( 19.99999999999990408, 22.50000000000000355, 0.000000000000000000 ) ) ;
#245 = CYLINDRICAL_SURFACE ( 'NONE', #124, 2.499999999999998668 ) ;
#246 = ORIENTED_EDGE ( 'NONE', *, *, #230, .T. ) ;
#247 = EDGE_CURVE ( 'NONE', #743, #670, #4, .T. ) ;
#248 = DIRECTION ( 'NONE',  ( 0.000000000000000000, 1.000000000000000000, 0.000000000000000000 ) ) ;
#249 = CARTESIAN_POINT ( 'NONE',  ( -27.50000000000000355, 27.49999999999999645, 5.000000000000000000 ) ) ;
#250 = LINE ( 'NONE', #177, #41 ) ;
#251 = ORIENTED_EDGE ( 'NONE', *, *, #325, .F. ) ;
#252 = AXIS2_PLACEMENT_3D ( 'NONE', #410, #611, #319 ) ;
#253 = CARTESIAN_POINT ( 'NONE',  ( 19.99999999999990408, 22.50000000000000355, 5.000000000000000000 ) ) ;
#254 = DIRECTION ( 'NONE',  ( 0.000000000000000000, 0.000000000000000000, 1.000000000000000000 ) ) ;
#255 = DIRECTION ( 'NONE',  ( 1.000000000000000000, 0.000000000000000000, 0.000000000000000000 ) ) ;
#256 = ORIENTED_EDGE ( 'NONE', *, *, #690, .F. ) ;
#257 = DIRECTION ( 'NONE',  ( 1.000000000000000000, 0.000000000000000000, 0.000000000000000000 ) ) ;
#258 = DIRECTION ( 'NONE',  ( -0.000000000000000000, -0.000000000000000000, 1.000000000000000000 ) ) ;
#259 = CARTESIAN_POINT ( 'NONE',  ( -22.50000000000000355, 22.49999999999999645, 0.000000000000000000 ) ) ;
#260 = ADVANCED_FACE ( 'NONE', ( #242 ), #318, .T. ) ;
#261 = ORIENTED_EDGE ( 'NONE', *, *, #542, .T. ) ;
#262 = DIRECTION ( 'NONE',  ( 1.000000000000000000, 0.000000000000000000, 0.000000000000000000 ) ) ;
#263 = CYLINDRICAL_SURFACE ( 'NONE', #233, 2.500000000000092371 ) ;
#264 = DIRECTION ( 'NONE',  ( 1.000000000000000000, 0.000000000000000000, 0.000000000000000000 ) ) ;
#265 = AXIS2_PLACEMENT_3D ( 'NONE', #114, #351, #471 ) ;
#266 = VERTEX_POINT ( 'NONE', #253 ) ;
#267 = AXIS2_PLACEMENT_3D ( 'NONE', #535, #706, #304 ) ;
#268 = VECTOR ( 'NONE', #176, 1000.000000000000000 ) ;
#269 = CARTESIAN_POINT ( 'NONE',  ( -24.99999999999999289, -22.50000000000000711, 0.000000000000000000 ) ) ;
#270 = VERTEX_POINT ( 'NONE', #306 ) ;
#271 = EDGE_CURVE ( 'NONE', #633, #285, #133, .T. ) ;
#272 = ORIENTED_EDGE ( 'NONE', *, *, #497, .F. ) ;
#273 = FACE_OUTER_BOUND ( 'NONE', #396, .T. ) ;
#274 = ORIENTED_EDGE ( 'NONE', *, *, #497, .T. ) ;
#275 = AXIS2_PLACEMENT_3D ( 'NONE', #664, #254, #554 ) ;
#276 = CIRCLE ( 'NONE', #470, 5.000000000000000888 ) ;
#277 = ADVANCED_FACE ( 'NONE', ( #714 ), #370, .F. ) ;
#278 = ORIENTED_EDGE ( 'NONE', *, *, #280, .F. ) ;
#279 = VERTEX_POINT ( 'NONE', #186 ) ;
#280 = EDGE_CURVE ( 'NONE', #81, #536, #522, .T. ) ;
#281 = CARTESIAN_POINT ( 'NONE',  ( -22.50000000000000355, 22.49999999999999645, 0.000000000000000000 ) ) ;
#282 = VECTOR ( 'NONE', #469, 1000.000000000000000 ) ;
#283 = CARTESIAN_POINT ( 'NONE',  ( 0.000000000000000000, -19.99999999999999645, 0.000000000000000000 ) ) ;
#284 = CIRCLE ( 'NONE', #337, 2.499999999999998668 ) ;
#285 = VERTEX_POINT ( 'NONE', #125 ) ;
#286 = EDGE_CURVE ( 'NONE', #680, #743, #617, .T. ) ;
#287 = CARTESIAN_POINT ( 'NONE',  ( 27.49999999999999645, 27.49999999999999645, 5.000000000000000000 ) ) ;
#288 = LINE ( 'NONE', #172, #268 ) ;
#289 = ORIENTED_EDGE ( 'NONE', *, *, #381, .T. ) ;
#290 = DIRECTION ( 'NONE',  ( 0.000000000000000000, 0.000000000000000000, 1.000000000000000000 ) ) ;
#291 = ORIENTED_EDGE ( 'NONE', *, *, #161, .F. ) ;
#292 = CIRCLE ( 'NONE', #723, 2.499999999999998668 ) ;
#293 = PLANE ( 'NONE',  #61 ) ;
#294 = VECTOR ( 'NONE', #477, 1000.000000000000000 ) ;
#295 = LINE ( 'NONE', #364, #312 ) ;
#296 = AXIS2_PLACEMENT_3D ( 'NONE', #539, #700, #405 ) ;
#297 = ADVANCED_FACE ( 'NONE', ( #537 ), #663, .F. ) ;
#298 = DIRECTION ( 'NONE',  ( -1.000000000000000000, 0.000000000000000000, 0.000000000000000000 ) ) ;
#299 = FACE_BOUND ( 'NONE', #697, .T. ) ;
#300 = CARTESIAN_POINT ( 'NONE',  ( -22.49999999999999645, -27.50000000000000355, 5.000000000000000000 ) ) ;
#301 = PRODUCT_RELATED_PRODUCT_CATEGORY ( 'part', '', ( #430 ) ) ;
#302 = ORIENTED_EDGE ( 'NONE', *, *, #180, .T. ) ;
#303 = CARTESIAN_POINT ( 'NONE',  ( -20.00000000000000000, 20.00000000000000355, 0.000000000000000000 ) ) ;
#304 = DIRECTION ( 'NONE',  ( 1.000000000000000000, 0.000000000000000000, 0.000000000000000000 ) ) ;
#305 = ORIENTED_EDGE ( 'NONE', *, *, #89, .F. ) ;
#306 = CARTESIAN_POINT ( 'NONE',  ( -20.00000000000000000, -19.99999999999999645, 0.000000000000000000 ) ) ;
#307 = CARTESIAN_POINT ( 'NONE',  ( 0.000000000000000000, 0.000000000000000000, 0.000000000000000000 ) ) ;
#308 = CARTESIAN_POINT ( 'NONE',  ( -25.00000000000000000, 22.49999999999999645, 0.000000000000000000 ) ) ;
#309 = VECTOR ( 'NONE', #99, 1000.000000000000000 ) ;
#310 = DIRECTION ( 'NONE',  ( -0.000000000000000000, -0.000000000000000000, 1.000000000000000000 ) ) ;
#311 = VERTEX_POINT ( 'NONE', #590 ) ;
#312 = VECTOR ( 'NONE', #540, 1000.000000000000000 ) ;
#313 = DIRECTION ( 'NONE',  ( 0.000000000000000000, 0.000000000000000000, -1.000000000000000000 ) ) ;
#314 = EDGE_CURVE ( 'NONE', #44, #608, #138, .T. ) ;
#315 = DIRECTION ( 'NONE',  ( 0.000000000000000000, 0.000000000000000000, -1.000000000000000000 ) ) ;
#316 = CARTESIAN_POINT ( 'NONE',  ( 19.99999999999990408, 22.50000000000000355, 0.000000000000000000 ) ) ;
#317 = ORIENTED_EDGE ( 'NONE', *, *, #414, .T. ) ;
#318 = CYLINDRICAL_SURFACE ( 'NONE', #747, 5.000000000000000888 ) ;
#319 = DIRECTION ( 'NONE',  ( 1.000000000000000000, 0.000000000000000000, 0.000000000000000000 ) ) ;
#320 = ORIENTED_EDGE ( 'NONE', *, *, #717, .F. ) ;
#321 = CARTESIAN_POINT ( 'NONE',  ( 20.00000000000000711, -22.49999999999999289, 0.000000000000000000 ) ) ;
#322 = DIRECTION ( 'NONE',  ( -1.000000000000000000, 0.000000000000000000, 0.000000000000000000 ) ) ;
#323 = VECTOR ( 'NONE', #188, 1000.000000000000000 ) ;
#324 = ORIENTED_EDGE ( 'NONE', *, *, #619, .F. ) ;
#325 = EDGE_CURVE ( 'NONE', #279, #168, #363, .T. ) ;
#326 = AXIS2_PLACEMENT_3D ( 'NONE', #719, #248, #194 ) ;
#327 = LINE ( 'NONE', #507, #736 ) ;
#328 = CARTESIAN_POINT ( 'NONE',  ( 22.50000000000000000, 22.49999999999999645, 0.000000000000000000 ) ) ;
#329 = ORIENTED_EDGE ( 'NONE', *, *, #741, .F. ) ;
#330 = ADVANCED_FACE ( 'NONE', ( #596 ), #73, .F. ) ;
#331 = CARTESIAN_POINT ( 'NONE',  ( -25.00000000000000000, 22.49999999999999645, 0.000000000000000000 ) ) ;
#332 = ORIENTED_EDGE ( 'NONE', *, *, #104, .T. ) ;
#333 = DIRECTION ( 'NONE',  ( 0.000000000000000000, 0.000000000000000000, 1.000000000000000000 ) ) ;
#334 = ORIENTED_EDGE ( 'NONE', *, *, #444, .T. ) ;
#335 = CIRCLE ( 'NONE', #13, 2.499999999999998668 ) ;
#336 = UNCERTAINTY_MEASURE_WITH_UNIT (LENGTH_MEASURE( 1.000000000000000082E-05 ), #130, 'distance_accuracy_value', 'NONE');
#337 = AXIS2_PLACEMENT_3D ( 'NONE', #631, #343, #712 ) ;
#338 = EDGE_CURVE ( 'NONE', #236, #680, #750, .T. ) ;
#339 = PLANE ( 'NONE',  #661 ) ;
#340 = ORIENTED_EDGE ( 'NONE', *, *, #699, .F. ) ;
#341 = ORIENTED_EDGE ( 'NONE', *, *, #83, .T. ) ;
#342 = PLANE ( 'NONE',  #76 ) ;
#343 = DIRECTION ( 'NONE',  ( 0.000000000000000000, 0.000000000000000000, 1.000000000000000000 ) ) ;
#344 = PRODUCT_DEFINITION_SHAPE ( 'NONE', 'NONE',  #647 ) ;
#345 = ADVANCED_FACE ( 'NONE', ( #755 ), #581, .F. ) ;
#346 = VECTOR ( 'NONE', #113, 1000.000000000000000 ) ;
#347 = FACE_BOUND ( 'NONE', #102, .T. ) ;
#348 = CIRCLE ( 'NONE', #267, 2.500000000000002220 ) ;
#349 = ORIENTED_EDGE ( 'NONE', *, *, #703, .T. ) ;
#350 = CARTESIAN_POINT ( 'NONE',  ( -22.50000000000000355, 22.49999999999999645, 5.000000000000000000 ) ) ;
#351 = DIRECTION ( 'NONE',  ( 0.000000000000000000, 0.000000000000000000, 1.000000000000000000 ) ) ;
#352 = ORIENTED_EDGE ( 'NONE', *, *, #619, .T. ) ;
#353 = CARTESIAN_POINT ( 'NONE',  ( -20.00000000000000000, 0.000000000000000000, 0.000000000000000000 ) ) ;
#354 = EDGE_CURVE ( 'NONE', #279, #228, #158, .T. ) ;
#355 = FACE_OUTER_BOUND ( 'NONE', #394, .T. ) ;
#356 = VERTEX_POINT ( 'NONE', #244 ) ;
#357 = AXIS2_PLACEMENT_3D ( 'NONE', #134, #711, #425 ) ;
#358 = CARTESIAN_POINT ( 'NONE',  ( 25.00000000000000355, -22.49999999999999289, 0.000000000000000000 ) ) ;
#359 = LINE ( 'NONE', #283, #397 ) ;
#360 = AXIS2_PLACEMENT_3D ( 'NONE', #548, #23, #15 ) ;
#361 = PLANE ( 'NONE',  #549 ) ;
#362 = ORIENTED_EDGE ( 'NONE', *, *, #395, .F. ) ;
#363 = LINE ( 'NONE', #376, #502 ) ;
#364 = CARTESIAN_POINT ( 'NONE',  ( -20.00000000000000000, -19.99999999999999645, 0.000000000000000000 ) ) ;
#365 = ORIENTED_EDGE ( 'NONE', *, *, #462, .F. ) ;
#366 = DIRECTION ( 'NONE',  ( 0.000000000000000000, -1.000000000000000000, 0.000000000000000000 ) ) ;
#367 = DIRECTION ( 'NONE',  ( 0.000000000000000000, -1.000000000000000000, 0.000000000000000000 ) ) ;
#368 = ORIENTED_EDGE ( 'NONE', *, *, #199, .T. ) ;
#369 = EDGE_CURVE ( 'NONE', #433, #123, #288, .T. ) ;
#370 = CYLINDRICAL_SURFACE ( 'NONE', #360, 2.500000000000002220 ) ;
#371 = CARTESIAN_POINT ( 'NONE',  ( -27.50000000000000355, 22.49999999999999645, 5.000000000000000000 ) ) ;
#372 = AXIS2_PLACEMENT_3D ( 'NONE', #57, #526, #642 ) ;
#373 = LINE ( 'NONE', #66, #29 ) ;
#374 = EDGE_LOOP ( 'NONE', ( #629, #413 ) ) ;
#375 = CLOSED_SHELL ( 'NONE', ( #529, #572, #503, #345, #97, #634, #452, #330, #758, #241, #156, #260, #402, #575, #108, #297, #387, #277, #141, #439, #137, #518 ) ) ;
#376 = CARTESIAN_POINT ( 'NONE',  ( -27.50000000000000355, 27.49999999999999645, 0.000000000000000000 ) ) ;
#377 = UNCERTAINTY_MEASURE_WITH_UNIT (LENGTH_MEASURE( 1.000000000000000082E-05 ), #31, 'distance_accuracy_value', 'NONE');
#378 = CARTESIAN_POINT ( 'NONE',  ( 22.50000000000000711, -27.50000000000000355, 5.000000000000000000 ) ) ;
#379 = DIRECTION ( 'NONE',  ( 0.000000000000000000, 0.000000000000000000, 1.000000000000000000 ) ) ;
#380 = EDGE_LOOP ( 'NONE', ( #422, #753, #428, #147 ) ) ;
#381 = EDGE_CURVE ( 'NONE', #625, #356, #662, .T. ) ;
#382 = DIRECTION ( 'NONE',  ( 1.000000000000000000, 0.000000000000000000, 0.000000000000000000 ) ) ;
#383 = SURFACE_SIDE_STYLE ('',( #436 ) ) ;
#384 = ORIENTED_EDGE ( 'NONE', *, *, #703, .F. ) ;
#385 = CARTESIAN_POINT ( 'NONE',  ( 25.00000000000008882, 22.50000000000000355, 5.000000000000000000 ) ) ;
#386 = DIRECTION ( 'NONE',  ( 0.000000000000000000, 0.000000000000000000, 1.000000000000000000 ) ) ;
#387 = ADVANCED_FACE ( 'NONE', ( #231 ), #409, .F. ) ;
#388 = AXIS2_PLACEMENT_3D ( 'NONE', #350, #584, #411 ) ;
#389 = EDGE_LOOP ( 'NONE', ( #305, #58, #496, #132 ) ) ;
#390 = AXIS2_PLACEMENT_3D ( 'NONE', #281, #637, #746 ) ;
#391 = CYLINDRICAL_SURFACE ( 'NONE', #435, 5.000000000000000888 ) ;
#392 = VERTEX_POINT ( 'NONE', #181 ) ;
#393 = FACE_OUTER_BOUND ( 'NONE', #37, .T. ) ;
#394 = EDGE_LOOP ( 'NONE', ( #707, #329, #677, #334 ) ) ;
#395 = EDGE_CURVE ( 'NONE', #536, #81, #91, .T. ) ;
#396 = EDGE_LOOP ( 'NONE', ( #211, #317, #198, #614 ) ) ;
#397 = VECTOR ( 'NONE', #523, 1000.000000000000000 ) ;
#398 = AXIS2_PLACEMENT_3D ( 'NONE', #505, #446, #508 ) ;
#399 = CARTESIAN_POINT ( 'NONE',  ( 22.49999999999999645, 22.50000000000000355, 5.000000000000000000 ) ) ;
#400 = ORIENTED_EDGE ( 'NONE', *, *, #610, .T. ) ;
#401 = CARTESIAN_POINT ( 'NONE',  ( -27.50000000000000355, 27.49999999999999645, 5.000000000000000000 ) ) ;
#402 = ADVANCED_FACE ( 'NONE', ( #203 ), #17, .T. ) ;
#403 = DIRECTION ( 'NONE',  ( 1.000000000000000000, 0.000000000000000000, 0.000000000000000000 ) ) ;
#404 = DIRECTION ( 'NONE',  ( 0.000000000000000000, 0.000000000000000000, -1.000000000000000000 ) ) ;
#405 = DIRECTION ( 'NONE',  ( 1.000000000000000000, 0.000000000000000000, 0.000000000000000000 ) ) ;
#406 = ORIENTED_EDGE ( 'NONE', *, *, #444, .F. ) ;
#407 = CARTESIAN_POINT ( 'NONE',  ( 20.00000000000000000, 20.00000000000000355, 0.000000000000000000 ) ) ;
#408 = AXIS2_PLACEMENT_3D ( 'NONE', #328, #88, #264 ) ;
#409 = CYLINDRICAL_SURFACE ( 'NONE', #569, 2.499999999999998668 ) ;
#410 = CARTESIAN_POINT ( 'NONE',  ( 22.50000000000000355, -22.50000000000000711, 5.000000000000000000 ) ) ;
#411 = DIRECTION ( 'NONE',  ( 1.000000000000000000, 0.000000000000000000, 0.000000000000000000 ) ) ;
#412 = ORIENTED_EDGE ( 'NONE', *, *, #558, .T. ) ;
#413 = ORIENTED_EDGE ( 'NONE', *, *, #127, .T. ) ;
#414 = EDGE_CURVE ( 'NONE', #574, #81, #601, .T. ) ;
#415 = DIRECTION ( 'NONE',  ( 1.000000000000000000, 0.000000000000000000, 0.000000000000000000 ) ) ;
#416 = CARTESIAN_POINT ( 'NONE',  ( -22.50000000000000355, 22.49999999999999645, 0.000000000000000000 ) ) ;
#417 = CARTESIAN_POINT ( 'NONE',  ( -20.00000000000000000, -19.99999999999999645, 5.000000000000000000 ) ) ;
#418 = VERTEX_POINT ( 'NONE', #606 ) ;
#419 = VECTOR ( 'NONE', #164, 1000.000000000000000 ) ;
#420 = DIRECTION ( 'NONE',  ( 1.261617073437677999E-16, -1.000000000000000000, 0.000000000000000000 ) ) ;
#421 = DIRECTION ( 'NONE',  ( 1.000000000000000000, 0.000000000000000000, 0.000000000000000000 ) ) ;
#422 = ORIENTED_EDGE ( 'NONE', *, *, #199, .F. ) ;
#423 = CARTESIAN_POINT ( 'NONE',  ( 22.50000000000000000, 22.49999999999999645, 5.000000000000000000 ) ) ;
#424 =( NAMED_UNIT ( * ) SI_UNIT ( $, .STERADIAN. ) SOLID_ANGLE_UNIT ( ) );
#425 = DIRECTION ( 'NONE',  ( 1.000000000000000000, 0.000000000000000000, 0.000000000000000000 ) ) ;
#426 = DIRECTION ( 'NONE',  ( -0.000000000000000000, 0.000000000000000000, -1.000000000000000000 ) ) ;
#427 = EDGE_CURVE ( 'NONE', #570, #311, #481, .T. ) ;
#428 = ORIENTED_EDGE ( 'NONE', *, *, #104, .F. ) ;
#429 = LINE ( 'NONE', #358, #626 ) ;
#430 = PRODUCT ( '01FixedFrame', '01FixedFrame', '', ( #87 ) ) ;
#431 = DIRECTION ( 'NONE',  ( 1.000000000000000000, 0.000000000000000000, 0.000000000000000000 ) ) ;
#432 = DIRECTION ( 'NONE',  ( -1.000000000000000000, 0.000000000000000000, -0.000000000000000000 ) ) ;
#433 = VERTEX_POINT ( 'NONE', #321 ) ;
#434 = DIRECTION ( 'NONE',  ( -0.000000000000000000, -0.000000000000000000, 1.000000000000000000 ) ) ;
#435 = AXIS2_PLACEMENT_3D ( 'NONE', #455, #453, #519 ) ;
#436 = SURFACE_STYLE_FILL_AREA ( #500 ) ;
#437 = CIRCLE ( 'NONE', #252, 5.000000000000000888 ) ;
#438 = ORIENTED_EDGE ( 'NONE', *, *, #16, .T. ) ;
#439 = ADVANCED_FACE ( 'NONE', ( #504 ), #494, .F. ) ;
#440 = DIRECTION ( 'NONE',  ( -0.000000000000000000, -0.000000000000000000, 1.000000000000000000 ) ) ;
#441 = CARTESIAN_POINT ( 'NONE',  ( -27.49999999999999645, -22.50000000000000711, 5.000000000000000000 ) ) ;
#442 = DIRECTION ( 'NONE',  ( -0.000000000000000000, -0.000000000000000000, 1.000000000000000000 ) ) ;
#443 = ORIENTED_EDGE ( 'NONE', *, *, #338, .F. ) ;
#444 = EDGE_CURVE ( 'NONE', #418, #94, #544, .T. ) ;
#445 = CARTESIAN_POINT ( 'NONE',  ( 20.00000000000000000, -19.99999999999999645, 0.000000000000000000 ) ) ;
#446 = DIRECTION ( 'NONE',  ( 0.000000000000000000, 0.000000000000000000, 1.000000000000000000 ) ) ;
#447 = ORIENTED_EDGE ( 'NONE', *, *, #690, .T. ) ;
#448 = AXIS2_PLACEMENT_3D ( 'NONE', #399, #744, #415 ) ;
#449 = ORIENTED_EDGE ( 'NONE', *, *, #39, .T. ) ;
#450 = CARTESIAN_POINT ( 'NONE',  ( 22.50000000000000711, -22.49999999999999289, 0.000000000000000000 ) ) ;
#451 = VERTEX_POINT ( 'NONE', #308 ) ;
#452 = ADVANCED_FACE ( 'NONE', ( #597 ), #69, .F. ) ;
#453 = DIRECTION ( 'NONE',  ( -0.000000000000000000, 0.000000000000000000, -1.000000000000000000 ) ) ;
#454 = ORIENTED_EDGE ( 'NONE', *, *, #748, .F. ) ;
#455 = CARTESIAN_POINT ( 'NONE',  ( -22.49999999999999645, -22.50000000000000355, 5.000000000000000000 ) ) ;
#456 = ORIENTED_EDGE ( 'NONE', *, *, #427, .F. ) ;
#457 = VECTOR ( 'NONE', #109, 1000.000000000000000 ) ;
#458 = VECTOR ( 'NONE', #442, 1000.000000000000000 ) ;
#459 = EDGE_CURVE ( 'NONE', #223, #311, #720, .T. ) ;
#460 = CARTESIAN_POINT ( 'NONE',  ( -19.99999999999998934, -22.50000000000000711, 5.000000000000000000 ) ) ;
#461 = CARTESIAN_POINT ( 'NONE',  ( 27.50000000000000355, -22.50000000000000711, 0.000000000000000000 ) ) ;
#462 = EDGE_CURVE ( 'NONE', #509, #551, #182, .T. ) ;
#463 = DIRECTION ( 'NONE',  ( -0.000000000000000000, 0.000000000000000000, 1.000000000000000000 ) ) ;
#464 = ORIENTED_EDGE ( 'NONE', *, *, #510, .T. ) ;
#465 = VERTEX_POINT ( 'NONE', #378 ) ;
#466 = LINE ( 'NONE', #171, #148 ) ;
#467 = ORIENTED_EDGE ( 'NONE', *, *, #286, .T. ) ;
#468 = CIRCLE ( 'NONE', #357, 5.000000000000000888 ) ;
#469 = DIRECTION ( 'NONE',  ( -1.261617073437677999E-16, 1.000000000000000000, -0.000000000000000000 ) ) ;
#470 = AXIS2_PLACEMENT_3D ( 'NONE', #498, #543, #724 ) ;
#471 = DIRECTION ( 'NONE',  ( 1.000000000000000000, 0.000000000000000000, 0.000000000000000000 ) ) ;
#472 = ORIENTED_EDGE ( 'NONE', *, *, #542, .F. ) ;
#473 = EDGE_CURVE ( 'NONE', #144, #509, #10, .T. ) ;
#474 = ORIENTED_EDGE ( 'NONE', *, *, #730, .T. ) ;
#475 = PLANE ( 'NONE',  #112 ) ;
#476 = EDGE_LOOP ( 'NONE', ( #454, #456 ) ) ;
#477 = DIRECTION ( 'NONE',  ( 0.000000000000000000, 0.000000000000000000, -1.000000000000000000 ) ) ;
#478 = CARTESIAN_POINT ( 'NONE',  ( 27.50000000000000355, -22.50000000000000711, 5.000000000000000000 ) ) ;
#479 = DIRECTION ( 'NONE',  ( -0.000000000000000000, -0.000000000000000000, 1.000000000000000000 ) ) ;
#480 = ORIENTED_EDGE ( 'NONE', *, *, #271, .T. ) ;
#481 = CIRCLE ( 'NONE', #275, 2.499999999999998668 ) ;
#482 = CARTESIAN_POINT ( 'NONE',  ( 22.50000000000000000, 22.49999999999999645, 5.000000000000000000 ) ) ;
#483 = APPLICATION_PROTOCOL_DEFINITION ( 'draft international standard', 'automotive_design', 1998, #651 ) ;
#484 = EDGE_CURVE ( 'NONE', #392, #144, #468, .T. ) ;
#485 = AXIS2_PLACEMENT_3D ( 'NONE', #74, #721, #135 ) ;
#486 = DIRECTION ( 'NONE',  ( -0.000000000000000000, 0.000000000000000000, 1.000000000000000000 ) ) ;
#487 = CARTESIAN_POINT ( 'NONE',  ( -22.49999999999999645, -27.50000000000000355, 0.000000000000000000 ) ) ;
#488 = EDGE_LOOP ( 'NONE', ( #365, #513, #136, #173 ) ) ;
#489 = CARTESIAN_POINT ( 'NONE',  ( 0.000000000000000000, 20.00000000000000355, 0.000000000000000000 ) ) ;
#490 = DIRECTION ( 'NONE',  ( -1.000000000000000000, -1.261617073437677999E-16, 0.000000000000000000 ) ) ;
#491 = PLANE ( 'NONE',  #149 ) ;
#492 = EDGE_LOOP ( 'NONE', ( #256, #718 ) ) ;
#493 = CARTESIAN_POINT ( 'NONE',  ( -0.000000000000000000, 20.00000000000000355, 5.000000000000000000 ) ) ;
#494 = PLANE ( 'NONE',  #28 ) ;
#495 = DIRECTION ( 'NONE',  ( -0.000000000000000000, -0.000000000000000000, 1.000000000000000000 ) ) ;
#496 = ORIENTED_EDGE ( 'NONE', *, *, #681, .T. ) ;
#497 = EDGE_CURVE ( 'NONE', #144, #279, #79, .T. ) ;
#498 = CARTESIAN_POINT ( 'NONE',  ( -22.49999999999999645, -22.50000000000000355, 0.000000000000000000 ) ) ;
#499 = CARTESIAN_POINT ( 'NONE',  ( 22.49999999999999645, 22.50000000000000355, 0.000000000000000000 ) ) ;
#500 = FILL_AREA_STYLE ('',( #563 ) ) ;
#501 = ORIENTED_EDGE ( 'NONE', *, *, #286, .F. ) ;
#502 = VECTOR ( 'NONE', #420, 1000.000000000000000 ) ;
#503 = ADVANCED_FACE ( 'NONE', ( #195 ), #263, .F. ) ;
#504 = FACE_OUTER_BOUND ( 'NONE', #666, .T. ) ;
#505 = CARTESIAN_POINT ( 'NONE',  ( 22.49999999999999645, 22.50000000000000355, 0.000000000000000000 ) ) ;
#506 = ORIENTED_EDGE ( 'NONE', *, *, #681, .F. ) ;
#507 = CARTESIAN_POINT ( 'NONE',  ( -20.00000000000000000, 0.000000000000000000, 5.000000000000000000 ) ) ;
#508 = DIRECTION ( 'NONE',  ( 1.000000000000000000, 0.000000000000000000, 0.000000000000000000 ) ) ;
#509 = VERTEX_POINT ( 'NONE', #441 ) ;
#510 = EDGE_CURVE ( 'NONE', #19, #236, #142, .T. ) ;
#511 = DIRECTION ( 'NONE',  ( 1.000000000000000000, 0.000000000000000000, 0.000000000000000000 ) ) ;
#512 = VECTOR ( 'NONE', #52, 1000.000000000000000 ) ;
#513 = ORIENTED_EDGE ( 'NONE', *, *, #660, .F. ) ;
#514 = PRESENTATION_LAYER_ASSIGNMENT (  '', '', ( #571 ) ) ;
#515 = VERTEX_POINT ( 'NONE', #219 ) ;
#516 = DIRECTION ( 'NONE',  ( -0.000000000000000000, -0.000000000000000000, 1.000000000000000000 ) ) ;
#517 = ORIENTED_EDGE ( 'NONE', *, *, #484, .T. ) ;
#518 = ADVANCED_FACE ( 'NONE', ( #393 ), #339, .T. ) ;
#519 = DIRECTION ( 'NONE',  ( -1.000000000000000000, 0.000000000000000000, 0.000000000000000000 ) ) ;
#520 = ORIENTED_EDGE ( 'NONE', *, *, #459, .F. ) ;
#521 = AXIS2_PLACEMENT_3D ( 'NONE', #24, #490, #715 ) ;
#522 = CIRCLE ( 'NONE', #185, 2.500000000000002220 ) ;
#523 = DIRECTION ( 'NONE',  ( 1.000000000000000000, 0.000000000000000000, 0.000000000000000000 ) ) ;
#524 = ORIENTED_EDGE ( 'NONE', *, *, #187, .T. ) ;
#525 = FACE_BOUND ( 'NONE', #165, .T. ) ;
#526 = DIRECTION ( 'NONE',  ( 0.000000000000000000, 0.000000000000000000, 1.000000000000000000 ) ) ;
#527 = ORIENTED_EDGE ( 'NONE', *, *, #209, .T. ) ;
#528 = CARTESIAN_POINT ( 'NONE',  ( 0.000000000000000000, 0.000000000000000000, 0.000000000000000000 ) ) ;
#529 = ADVANCED_FACE ( 'NONE', ( #273 ), #95, .F. ) ;
#530 = DIRECTION ( 'NONE',  ( 0.000000000000000000, -0.000000000000000000, -1.000000000000000000 ) ) ;
#531 = ORIENTED_EDGE ( 'NONE', *, *, #748, .T. ) ;
#532 = CIRCLE ( 'NONE', #448, 2.500000000000092371 ) ;
#533 = CARTESIAN_POINT ( 'NONE',  ( -27.50000000000000355, 27.49999999999999645, 5.000000000000000000 ) ) ;
#534 = AXIS2_PLACEMENT_3D ( 'NONE', #704, #440, #605 ) ;
#535 = CARTESIAN_POINT ( 'NONE',  ( -22.49999999999999289, -22.50000000000000711, 0.000000000000000000 ) ) ;
#536 = VERTEX_POINT ( 'NONE', #460 ) ;
#537 = FACE_OUTER_BOUND ( 'NONE', #389, .T. ) ;
#538 = LINE ( 'NONE', #478, #624 ) ;
#539 = CARTESIAN_POINT ( 'NONE',  ( -22.50000000000000355, 22.49999999999999645, 0.000000000000000000 ) ) ;
#540 = DIRECTION ( 'NONE',  ( -0.000000000000000000, -0.000000000000000000, 1.000000000000000000 ) ) ;
#541 = EDGE_LOOP ( 'NONE', ( #3, #722 ) ) ;
#542 = EDGE_CURVE ( 'NONE', #451, #570, #566, .T. ) ;
#543 = DIRECTION ( 'NONE',  ( 0.000000000000000000, -0.000000000000000000, -1.000000000000000000 ) ) ;
#544 = LINE ( 'NONE', #445, #110 ) ;
#545 = LINE ( 'NONE', #131, #14 ) ;
#546 = EDGE_LOOP ( 'NONE', ( #96, #54, #246, #447 ) ) ;
#547 = VECTOR ( 'NONE', #668, 1000.000000000000000 ) ;
#548 = CARTESIAN_POINT ( 'NONE',  ( -22.49999999999999289, -22.50000000000000711, 0.000000000000000000 ) ) ;
#549 = AXIS2_PLACEMENT_3D ( 'NONE', #239, #432, #658 ) ;
#550 = CARTESIAN_POINT ( 'NONE',  ( 20.00000000000000000, -19.99999999999999645, 5.000000000000000000 ) ) ;
#551 = VERTEX_POINT ( 'NONE', #45 ) ;
#552 = DIRECTION ( 'NONE',  ( -0.000000000000000000, 0.000000000000000000, 1.000000000000000000 ) ) ;
#553 = DIRECTION ( 'NONE',  ( 1.000000000000000000, 0.000000000000000000, 0.000000000000000000 ) ) ;
#554 = DIRECTION ( 'NONE',  ( 1.000000000000000000, 0.000000000000000000, 0.000000000000000000 ) ) ;
#555 = DIRECTION ( 'NONE',  ( 1.000000000000000000, 0.000000000000000000, 0.000000000000000000 ) ) ;
#556 = VERTEX_POINT ( 'NONE', #34 ) ;
#557 = DIRECTION ( 'NONE',  ( -0.000000000000000000, -0.000000000000000000, 1.000000000000000000 ) ) ;
#558 = EDGE_CURVE ( 'NONE', #223, #451, #335, .T. ) ;
#559 = ORIENTED_EDGE ( 'NONE', *, *, #83, .F. ) ;
#560 = DIRECTION ( 'NONE',  ( 0.000000000000000000, -1.000000000000000000, 0.000000000000000000 ) ) ;
#561 = AXIS2_PLACEMENT_3D ( 'NONE', #207, #139, #322 ) ;
#562 = EDGE_LOOP ( 'NONE', ( #105, #691, #644, #140 ) ) ;
#563 = FILL_AREA_STYLE_COLOUR ( '', #77 ) ;
#564 = VERTEX_POINT ( 'NONE', #385 ) ;
#565 = EDGE_CURVE ( 'NONE', #633, #154, #327, .T. ) ;
#566 = LINE ( 'NONE', #331, #745 ) ;
#567 = ORIENTED_EDGE ( 'NONE', *, *, #187, .F. ) ;
#568 = FACE_OUTER_BOUND ( 'NONE', #240, .T. ) ;
#569 = AXIS2_PLACEMENT_3D ( 'NONE', #120, #636, #235 ) ;
#570 = VERTEX_POINT ( 'NONE', #742 ) ;
#571 = STYLED_ITEM ( 'NONE', ( #93 ), #215 ) ;
#572 = ADVANCED_FACE ( 'NONE', ( #568 ), #733, .F. ) ;
#573 = ORIENTED_EDGE ( 'NONE', *, *, #354, .F. ) ;
#574 = VERTEX_POINT ( 'NONE', #150 ) ;
#575 = ADVANCED_FACE ( 'NONE', ( #157 ), #391, .T. ) ;
#576 = CARTESIAN_POINT ( 'NONE',  ( 20.00000000000000000, 20.00000000000000355, 0.000000000000000000 ) ) ;
#577 = ORIENTED_EDGE ( 'NONE', *, *, #641, .T. ) ;
#578 = AXIS2_PLACEMENT_3D ( 'NONE', #307, #9, #553 ) ;
#579 = AXIS2_PLACEMENT_3D ( 'NONE', #593, #6, #255 ) ;
#580 = LINE ( 'NONE', #106, #615 ) ;
#581 = CYLINDRICAL_SURFACE ( 'NONE', #296, 2.499999999999998668 ) ;
#582 = ORIENTED_EDGE ( 'NONE', *, *, #462, .T. ) ;
#583 = EDGE_CURVE ( 'NONE', #608, #418, #739, .T. ) ;
#584 = DIRECTION ( 'NONE',  ( 0.000000000000000000, 0.000000000000000000, 1.000000000000000000 ) ) ;
#585 = ORIENTED_EDGE ( 'NONE', *, *, #484, .F. ) ;
#586 = EDGE_LOOP ( 'NONE', ( #472, #603, #684, #531 ) ) ;
#587 = CARTESIAN_POINT ( 'NONE',  ( 25.00000000000008882, 22.50000000000000355, 0.000000000000000000 ) ) ;
#588 = CARTESIAN_POINT ( 'NONE',  ( -20.00000000000000000, 20.00000000000000355, 0.000000000000000000 ) ) ;
#589 = AXIS2_PLACEMENT_3D ( 'NONE', #30, #145, #657 ) ;
#590 = CARTESIAN_POINT ( 'NONE',  ( -20.00000000000000355, 22.49999999999999645, 5.000000000000000000 ) ) ;
#591 = DIRECTION ( 'NONE',  ( -1.000000000000000000, -0.000000000000000000, -0.000000000000000000 ) ) ;
#592 = AXIS2_PLACEMENT_3D ( 'NONE', #416, #530, #53 ) ;
#593 = CARTESIAN_POINT ( 'NONE',  ( 22.50000000000000355, -22.50000000000000711, 0.000000000000000000 ) ) ;
#594 = EDGE_CURVE ( 'NONE', #564, #266, #532, .T. ) ;
#595 = ORIENTED_EDGE ( 'NONE', *, *, #369, .T. ) ;
#596 = FACE_OUTER_BOUND ( 'NONE', #159, .T. ) ;
#597 = FACE_OUTER_BOUND ( 'NONE', #174, .T. ) ;
#598 = FACE_BOUND ( 'NONE', #35, .T. ) ;
#599 = ORIENTED_EDGE ( 'NONE', *, *, #338, .T. ) ;
#600 =( NAMED_UNIT ( * ) PLANE_ANGLE_UNIT ( ) SI_UNIT ( $, .RADIAN. ) );
#601 = LINE ( 'NONE', #269, #38 ) ;
#602 = FACE_BOUND ( 'NONE', #541, .T. ) ;
#603 = ORIENTED_EDGE ( 'NONE', *, *, #558, .F. ) ;
#604 = AXIS2_PLACEMENT_3D ( 'NONE', #638, #162, #5 ) ;
#605 = DIRECTION ( 'NONE',  ( 1.000000000000000000, 0.000000000000000000, 0.000000000000000000 ) ) ;
#606 = CARTESIAN_POINT ( 'NONE',  ( 20.00000000000000000, -19.99999999999999645, 0.000000000000000000 ) ) ;
#607 = CARTESIAN_POINT ( 'NONE',  ( 20.00000000000000000, 0.000000000000000000, 5.000000000000000000 ) ) ;
#608 = VERTEX_POINT ( 'NONE', #576 ) ;
#609 = DIRECTION ( 'NONE',  ( 0.000000000000000000, 0.000000000000000000, 1.000000000000000000 ) ) ;
#610 = EDGE_CURVE ( 'NONE', #123, #227, #756, .T. ) ;
#611 = DIRECTION ( 'NONE',  ( -0.000000000000000000, 0.000000000000000000, 1.000000000000000000 ) ) ;
#612 = ORIENTED_EDGE ( 'NONE', *, *, #180, .F. ) ;
#613 = CARTESIAN_POINT ( 'NONE',  ( -22.50000000000000355, 27.49999999999999645, 5.000000000000000000 ) ) ;
#614 = ORIENTED_EDGE ( 'NONE', *, *, #116, .F. ) ;
#615 = VECTOR ( 'NONE', #48, 1000.000000000000000 ) ;
#616 = SURFACE_STYLE_USAGE ( .BOTH. , #383 ) ;
#617 = CIRCLE ( 'NONE', #63, 5.000000000000000888 ) ;
#618 = ORIENTED_EDGE ( 'NONE', *, *, #27, .T. ) ;
#619 = EDGE_CURVE ( 'NONE', #86, #556, #117, .T. ) ;
#620 = ORIENTED_EDGE ( 'NONE', *, *, #671, .T. ) ;
#621 = CARTESIAN_POINT ( 'NONE',  ( -22.50000000000000355, 22.49999999999999645, 0.000000000000000000 ) ) ;
#622 = EDGE_LOOP ( 'NONE', ( #757, #559, #340, #713 ) ) ;
#623 = DIRECTION ( 'NONE',  ( -1.261617073437677999E-16, 1.000000000000000000, -0.000000000000000000 ) ) ;
#624 = VECTOR ( 'NONE', #404, 1000.000000000000000 ) ;
#625 = VERTEX_POINT ( 'NONE', #587 ) ;
#626 = VECTOR ( 'NONE', #434, 1000.000000000000000 ) ;
#627 = VECTOR ( 'NONE', #226, 1000.000000000000000 ) ;
#628 = DIRECTION ( 'NONE',  ( 1.000000000000000000, 0.000000000000000000, 0.000000000000000000 ) ) ;
#629 = ORIENTED_EDGE ( 'NONE', *, *, #170, .T. ) ;
#630 = CARTESIAN_POINT ( 'NONE',  ( 27.49999999999999645, 22.49999999999999645, 5.000000000000000000 ) ) ;
#631 = CARTESIAN_POINT ( 'NONE',  ( 22.50000000000000711, -22.49999999999999289, 0.000000000000000000 ) ) ;
#632 = LINE ( 'NONE', #401, #419 ) ;
#633 = VERTEX_POINT ( 'NONE', #689 ) ;
#634 = ADVANCED_FACE ( 'NONE', ( #65, #525, #299, #347, #754, #635 ), #342, .F. ) ;
#635 = FACE_BOUND ( 'NONE', #128, .T. ) ;
#636 = DIRECTION ( 'NONE',  ( -0.000000000000000000, -0.000000000000000000, 1.000000000000000000 ) ) ;
#637 = DIRECTION ( 'NONE',  ( 0.000000000000000000, 0.000000000000000000, 1.000000000000000000 ) ) ;
#638 = CARTESIAN_POINT ( 'NONE',  ( 22.50000000000000711, -22.49999999999999289, 5.000000000000000000 ) ) ;
#639 = CARTESIAN_POINT ( 'NONE',  ( -24.99999999999999289, -22.50000000000000711, 5.000000000000000000 ) ) ;
#640 = DIRECTION ( 'NONE',  ( 1.000000000000000000, 0.000000000000000000, 0.000000000000000000 ) ) ;
#641 = EDGE_CURVE ( 'NONE', #740, #19, #538, .T. ) ;
#642 = DIRECTION ( 'NONE',  ( 1.000000000000000000, 0.000000000000000000, 0.000000000000000000 ) ) ;
#643 = DIRECTION ( 'NONE',  ( -1.000000000000000000, 0.000000000000000000, -0.000000000000000000 ) ) ;
#644 = ORIENTED_EDGE ( 'NONE', *, *, #116, .T. ) ;
#645 = VECTOR ( 'NONE', #68, 1000.000000000000000 ) ;
#646 = CARTESIAN_POINT ( 'NONE',  ( -22.49999999999999289, -22.50000000000000711, 5.000000000000000000 ) ) ;
#647 = PRODUCT_DEFINITION ( 'UNKNOWN', '', #674, #224 ) ;
#648 = CARTESIAN_POINT ( 'NONE',  ( 27.49999999999999645, 22.49999999999999645, 5.000000000000000000 ) ) ;
#649 = DIRECTION ( 'NONE',  ( -0.000000000000000000, -0.000000000000000000, 1.000000000000000000 ) ) ;
#650 = ORIENTED_EDGE ( 'NONE', *, *, #230, .F. ) ;
#651 = APPLICATION_CONTEXT ( 'automotive_design' ) ;
#652 = CARTESIAN_POINT ( 'NONE',  ( -27.50000000000000355, 27.49999999999999645, 5.000000000000000000 ) ) ;
#653 = APPLICATION_PROTOCOL_DEFINITION ( 'draft international standard', 'automotive_design', 1998, #55 ) ;
#654 = DIRECTION ( 'NONE',  ( 1.000000000000000000, 0.000000000000000000, 0.000000000000000000 ) ) ;
#655 = ORIENTED_EDGE ( 'NONE', *, *, #161, .T. ) ;
#656 = CARTESIAN_POINT ( 'NONE',  ( 27.49999999999999645, 22.49999999999999645, 0.000000000000000000 ) ) ;
#657 = DIRECTION ( 'NONE',  ( -1.000000000000000000, 0.000000000000000000, 0.000000000000000000 ) ) ;
#658 = DIRECTION ( 'NONE',  ( -0.000000000000000000, 0.000000000000000000, 1.000000000000000000 ) ) ;
#659 = ORIENTED_EDGE ( 'NONE', *, *, #218, .F. ) ;
#660 = EDGE_CURVE ( 'NONE', #168, #509, #229, .T. ) ;
#661 = AXIS2_PLACEMENT_3D ( 'NONE', #36, #675, #216 ) ;
#662 = CIRCLE ( 'NONE', #372, 2.500000000000092371 ) ;
#663 = CYLINDRICAL_SURFACE ( 'NONE', #534, 2.500000000000092371 ) ;
#664 = CARTESIAN_POINT ( 'NONE',  ( -22.50000000000000355, 22.49999999999999645, 5.000000000000000000 ) ) ;
#665 =( NAMED_UNIT ( * ) PLANE_ANGLE_UNIT ( ) SI_UNIT ( $, .RADIAN. ) );
#666 = EDGE_LOOP ( 'NONE', ( #32, #406, #384, #341 ) ) ;
#667 = DIRECTION ( 'NONE',  ( 1.000000000000000000, 0.000000000000000000, 0.000000000000000000 ) ) ;
#668 = DIRECTION ( 'NONE',  ( 1.261617073437677999E-16, -1.000000000000000000, 0.000000000000000000 ) ) ;
#669 = CARTESIAN_POINT ( 'NONE',  ( 25.00000000000000355, -22.49999999999999289, 0.000000000000000000 ) ) ;
#670 = VERTEX_POINT ( 'NONE', #692 ) ;
#671 = EDGE_CURVE ( 'NONE', #743, #392, #632, .T. ) ;
#672 = DIRECTION ( 'NONE',  ( 1.000000000000000000, 0.000000000000000000, 0.000000000000000000 ) ) ;
#673 = ORIENTED_EDGE ( 'NONE', *, *, #473, .T. ) ;
#674 = PRODUCT_DEFINITION_FORMATION_WITH_SPECIFIED_SOURCE ( 'ANY', '', #430, .NOT_KNOWN. ) ;
#675 = DIRECTION ( 'NONE',  ( 0.000000000000000000, -1.000000000000000000, 0.000000000000000000 ) ) ;
#676 = CIRCLE ( 'NONE', #579, 5.000000000000000888 ) ;
#677 = ORIENTED_EDGE ( 'NONE', *, *, #583, .T. ) ;
#678 = ORIENTED_EDGE ( 'NONE', *, *, #565, .F. ) ;
#679 = CARTESIAN_POINT ( 'NONE',  ( 20.00000000000000000, 0.000000000000000000, 0.000000000000000000 ) ) ;
#680 = VERTEX_POINT ( 'NONE', #630 ) ;
#681 = EDGE_CURVE ( 'NONE', #625, #564, #580, .T. ) ;
#682 = CARTESIAN_POINT ( 'NONE',  ( -22.49999999999999289, -22.50000000000000711, 0.000000000000000000 ) ) ;
#683 = AXIS2_PLACEMENT_3D ( 'NONE', #84, #486, #431 ) ;
#684 = ORIENTED_EDGE ( 'NONE', *, *, #459, .T. ) ;
#685 = VECTOR ( 'NONE', #82, 1000.000000000000000 ) ;
#686 = ORIENTED_EDGE ( 'NONE', *, *, #717, .T. ) ;
#687 = DIRECTION ( 'NONE',  ( -0.000000000000000000, -0.000000000000000000, 1.000000000000000000 ) ) ;
#688 = CARTESIAN_POINT ( 'NONE',  ( -27.49999999999999645, -27.50000000000000355, 5.000000000000000000 ) ) ;
#689 = CARTESIAN_POINT ( 'NONE',  ( -20.00000000000000000, 20.00000000000000355, 5.000000000000000000 ) ) ;
#690 = EDGE_CURVE ( 'NONE', #227, #123, #292, .T. ) ;
#691 = ORIENTED_EDGE ( 'NONE', *, *, #170, .F. ) ;
#692 = CARTESIAN_POINT ( 'NONE',  ( 22.50000000000000000, 27.49999999999999645, 0.000000000000000000 ) ) ;
#693 = EDGE_LOOP ( 'NONE', ( #193, #261, #220, #520 ) ) ;
#694 = VECTOR ( 'NONE', #315, 1000.000000000000000 ) ;
#695 = VECTOR ( 'NONE', #495, 1000.000000000000000 ) ;
#696 = CARTESIAN_POINT ( 'NONE',  ( 22.50000000000000000, 27.49999999999999645, 5.000000000000000000 ) ) ;
#697 = EDGE_LOOP ( 'NONE', ( #289, #655 ) ) ;
#698 = EDGE_LOOP ( 'NONE', ( #7, #274, #751, #151 ) ) ;
#699 = EDGE_CURVE ( 'NONE', #44, #270, #234, .T. ) ;
#700 = DIRECTION ( 'NONE',  ( -0.000000000000000000, -0.000000000000000000, 1.000000000000000000 ) ) ;
#701 = CARTESIAN_POINT ( 'NONE',  ( -27.50000000000000355, 22.49999999999999645, 5.000000000000000000 ) ) ;
#702 = ORIENTED_EDGE ( 'NONE', *, *, #314, .F. ) ;
#703 = EDGE_CURVE ( 'NONE', #270, #418, #359, .T. ) ;
#704 = CARTESIAN_POINT ( 'NONE',  ( 22.49999999999999645, 22.50000000000000355, 0.000000000000000000 ) ) ;
#705 = SHAPE_DEFINITION_REPRESENTATION ( #344, #51 ) ;
#706 = DIRECTION ( 'NONE',  ( 0.000000000000000000, 0.000000000000000000, 1.000000000000000000 ) ) ;
#707 = ORIENTED_EDGE ( 'NONE', *, *, #47, .F. ) ;
#708 = VECTOR ( 'NONE', #623, 1000.000000000000000 ) ;
#709 = CIRCLE ( 'NONE', #390, 2.499999999999998668 ) ;
#710 = CARTESIAN_POINT ( 'NONE',  ( -22.50000000000000355, 27.49999999999999645, 0.000000000000000000 ) ) ;
#711 = DIRECTION ( 'NONE',  ( -0.000000000000000000, 0.000000000000000000, 1.000000000000000000 ) ) ;
#712 = DIRECTION ( 'NONE',  ( 1.000000000000000000, 0.000000000000000000, 0.000000000000000000 ) ) ;
#713 = ORIENTED_EDGE ( 'NONE', *, *, #218, .T. ) ;
#714 = FACE_OUTER_BOUND ( 'NONE', #562, .T. ) ;
#715 = DIRECTION ( 'NONE',  ( 1.261617073437677999E-16, -1.000000000000000000, 0.000000000000000000 ) ) ;
#716 = CARTESIAN_POINT ( 'NONE',  ( 20.00000000000000711, -22.49999999999999289, 5.000000000000000000 ) ) ;
#717 = EDGE_CURVE ( 'NONE', #740, #680, #225, .T. ) ;
#718 = ORIENTED_EDGE ( 'NONE', *, *, #610, .F. ) ;
#719 = CARTESIAN_POINT ( 'NONE',  ( -27.49999999999999645, -27.50000000000000355, 5.000000000000000000 ) ) ;
#720 = LINE ( 'NONE', #191, #323 ) ;
#721 = DIRECTION ( 'NONE',  ( 0.000000000000000000, 0.000000000000000000, 1.000000000000000000 ) ) ;
#722 = ORIENTED_EDGE ( 'NONE', *, *, #39, .F. ) ;
#723 = AXIS2_PLACEMENT_3D ( 'NONE', #119, #290, #749 ) ;
#724 = DIRECTION ( 'NONE',  ( 1.000000000000000000, 0.000000000000000000, 0.000000000000000000 ) ) ;
#725 = VECTOR ( 'NONE', #367, 1000.000000000000000 ) ;
#726 = AXIS2_PLACEMENT_3D ( 'NONE', #652, #366, #78 ) ;
#727 = DIRECTION ( 'NONE',  ( -0.000000000000000000, -0.000000000000000000, 1.000000000000000000 ) ) ;
#728 = CARTESIAN_POINT ( 'NONE',  ( -22.49999999999999289, -22.50000000000000711, 0.000000000000000000 ) ) ;
#729 = EDGE_LOOP ( 'NONE', ( #480, #160, #12, #678 ) ) ;
#730 = EDGE_CURVE ( 'NONE', #670, #228, #466, .T. ) ;
#731 = CARTESIAN_POINT ( 'NONE',  ( 0.000000000000000000, -19.99999999999999645, 0.000000000000000000 ) ) ;
#732 = ORIENTED_EDGE ( 'NONE', *, *, #209, .F. ) ;
#733 = CYLINDRICAL_SURFACE ( 'NONE', #167, 2.499999999999998668 ) ;
#734 = LINE ( 'NONE', #613, #458 ) ;
#735 = ORIENTED_EDGE ( 'NONE', *, *, #33, .T. ) ;
#736 = VECTOR ( 'NONE', #210, 1000.000000000000000 ) ;
#737 = AXIS2_PLACEMENT_3D ( 'NONE', #728, #379, #85 ) ;
#738 = ORIENTED_EDGE ( 'NONE', *, *, #730, .F. ) ;
#739 = LINE ( 'NONE', #679, #309 ) ;
#740 = VERTEX_POINT ( 'NONE', #175 ) ;
#741 = EDGE_CURVE ( 'NONE', #608, #285, #166, .T. ) ;
#742 = CARTESIAN_POINT ( 'NONE',  ( -25.00000000000000000, 22.49999999999999645, 5.000000000000000000 ) ) ;
#743 = VERTEX_POINT ( 'NONE', #696 ) ;
#744 = DIRECTION ( 'NONE',  ( 0.000000000000000000, 0.000000000000000000, 1.000000000000000000 ) ) ;
#745 = VECTOR ( 'NONE', #687, 1000.000000000000000 ) ;
#746 = DIRECTION ( 'NONE',  ( 1.000000000000000000, 0.000000000000000000, 0.000000000000000000 ) ) ;
#747 = AXIS2_PLACEMENT_3D ( 'NONE', #482, #313, #298 ) ;
#748 = EDGE_CURVE ( 'NONE', #311, #570, #121, .T. ) ;
#749 = DIRECTION ( 'NONE',  ( 1.000000000000000000, 0.000000000000000000, 0.000000000000000000 ) ) ;
#750 = LINE ( 'NONE', #648, #627 ) ;
#751 = ORIENTED_EDGE ( 'NONE', *, *, #325, .T. ) ;
#752 = CARTESIAN_POINT ( 'NONE',  ( -27.49999999999999645, -22.50000000000000711, 5.000000000000000000 ) ) ;
#753 = ORIENTED_EDGE ( 'NONE', *, *, #72, .F. ) ;
#754 = FACE_BOUND ( 'NONE', #374, .T. ) ;
#755 = FACE_OUTER_BOUND ( 'NONE', #693, .T. ) ;
#756 = CIRCLE ( 'NONE', #604, 2.499999999999998668 ) ;
#757 = ORIENTED_EDGE ( 'NONE', *, *, #565, .T. ) ;
#758 = ADVANCED_FACE ( 'NONE', ( #59 ), #293, .F. ) ;
#759 = CIRCLE ( 'NONE', #737, 2.500000000000002220 ) ;
ENDSEC;
END-ISO-10303-21;
