ISO-10303-21;
HEADER;
FILE_DESCRIPTION (( 'STEP AP214' ),
    '1' );
FILE_NAME ('02DesignFrame.STEP',
    '2026-09-28T14:53:21',
    ( '' ),
    ( '' ),
    'SwSTEP 2.0',
    'SolidWorks 2026',
    '' );
FILE_SCHEMA (( 'AUTOMOTIVE_DESIGN' ));
ENDSEC;

DATA;
#1 = PLANE ( 'NONE',  #113 ) ;
#2 = EDGE_CURVE ( 'NONE', #204, #318, #239, .T. ) ;
#3 = LINE ( 'NONE', #44, #58 ) ;
#4 = EDGE_LOOP ( 'NONE', ( #212, #243, #174, #147 ) ) ;
#5 = DIRECTION ( 'NONE',  ( -0.000000000000000000, -0.000000000000000000, -1.000000000000000000 ) ) ;
#6 = VECTOR ( 'NONE', #197, 1000.000000000000000 ) ;
#7 = CARTESIAN_POINT ( 'NONE',  ( 10.25000000000000178, 8.000000000000000000, 5.000000000000000000 ) ) ;
#8 = VERTEX_POINT ( 'NONE', #186 ) ;
#9 = CARTESIAN_POINT ( 'NONE',  ( 20.00000000000000355, 0.000000000000000000, 0.000000000000000000 ) ) ;
#10 = CLOSED_SHELL ( 'NONE', ( #164, #158, #320, #308, #188, #220, #192, #130, #262, #56 ) ) ;
#11 = CARTESIAN_POINT ( 'NONE',  ( 10.25000000000000178, -8.000000000000000000, 5.000000000000000000 ) ) ;
#12 = CARTESIAN_POINT ( 'NONE',  ( -19.99999999999999645, 20.00000000000000000, 5.000000000000000000 ) ) ;
#13 = CARTESIAN_POINT ( 'NONE',  ( 20.00000000000000355, 20.00000000000000000, 5.000000000000000000 ) ) ;
#14 = ORIENTED_EDGE ( 'NONE', *, *, #267, .T. ) ;
#15 = CARTESIAN_POINT ( 'NONE',  ( 0.000000000000000000, 20.00000000000000000, 5.000000000000000000 ) ) ;
#16 = ORIENTED_EDGE ( 'NONE', *, *, #2, .F. ) ;
#17 = PLANE ( 'NONE',  #151 ) ;
#18 = DIRECTION ( 'NONE',  ( 0.000000000000000000, 1.000000000000000000, 0.000000000000000000 ) ) ;
#19 = ORIENTED_EDGE ( 'NONE', *, *, #281, .T. ) ;
#20 = CARTESIAN_POINT ( 'NONE',  ( 20.00000000000000355, 0.000000000000000000, 5.000000000000000000 ) ) ;
#21 = STYLED_ITEM ( 'NONE', ( #264 ), #80 ) ;
#22 = EDGE_LOOP ( 'NONE', ( #19, #29, #206, #62 ) ) ;
#23 = EDGE_CURVE ( 'NONE', #294, #284, #34, .T. ) ;
#24 = VERTEX_POINT ( 'NONE', #7 ) ;
#25 = CARTESIAN_POINT ( 'NONE',  ( 20.00000000000000355, 20.00000000000000000, 5.000000000000000000 ) ) ;
#26 = FACE_OUTER_BOUND ( 'NONE', #91, .T. ) ;
#27 = VECTOR ( 'NONE', #149, 1000.000000000000000 ) ;
#28 = DIRECTION ( 'NONE',  ( 1.000000000000000000, 0.000000000000000000, 0.000000000000000000 ) ) ;
#29 = ORIENTED_EDGE ( 'NONE', *, *, #267, .F. ) ;
#30 = DIRECTION ( 'NONE',  ( 1.084202172485504434E-16, -1.000000000000000000, 0.000000000000000000 ) ) ;
#31 = DIRECTION ( 'NONE',  ( 0.000000000000000000, -1.000000000000000000, 0.000000000000000000 ) ) ;
#32 = EDGE_CURVE ( 'NONE', #52, #318, #55, .T. ) ;
#33 =( NAMED_UNIT ( * ) SI_UNIT ( $, .STERADIAN. ) SOLID_ANGLE_UNIT ( ) );
#34 = LINE ( 'NONE', #114, #219 ) ;
#35 = DIRECTION ( 'NONE',  ( 0.000000000000000000, -0.000000000000000000, 1.000000000000000000 ) ) ;
#36 = FACE_OUTER_BOUND ( 'NONE', #292, .T. ) ;
#37 = EDGE_LOOP ( 'NONE', ( #178, #247, #314, #175 ) ) ;
#38 = DIRECTION ( 'NONE',  ( 0.000000000000000000, 1.000000000000000000, 0.000000000000000000 ) ) ;
#39 = ORIENTED_EDGE ( 'NONE', *, *, #32, .F. ) ;
#40 = DIRECTION ( 'NONE',  ( -0.000000000000000000, -0.000000000000000000, -1.000000000000000000 ) ) ;
#41 = ORIENTED_EDGE ( 'NONE', *, *, #122, .T. ) ;
#42 = APPLICATION_CONTEXT ( 'automotive_design' ) ;
#43 = DIRECTION ( 'NONE',  ( 1.000000000000000000, 0.000000000000000000, -0.000000000000000000 ) ) ;
#44 = CARTESIAN_POINT ( 'NONE',  ( 10.25000000000000178, 0.000000000000000000, 0.000000000000000000 ) ) ;
#45 = EDGE_CURVE ( 'NONE', #284, #150, #216, .T. ) ;
#46 = EDGE_LOOP ( 'NONE', ( #16, #276, #182, #97 ) ) ;
#47 = CARTESIAN_POINT ( 'NONE',  ( 20.00000000000000355, -20.00000000000000000, 5.000000000000000000 ) ) ;
#48 = AXIS2_PLACEMENT_3D ( 'NONE', #254, #18, #124 ) ;
#49 = EDGE_LOOP ( 'NONE', ( #125, #120, #142, #70 ) ) ;
#50 =( GEOMETRIC_REPRESENTATION_CONTEXT ( 3 ) GLOBAL_UNCERTAINTY_ASSIGNED_CONTEXT ( ( #96 ) ) GLOBAL_UNIT_ASSIGNED_CONTEXT ( ( #208, #129, #259 ) ) REPRESENTATION_CONTEXT ( 'NONE', 'WORKASPACE' ) );
#51 = EDGE_CURVE ( 'NONE', #52, #67, #283, .T. ) ;
#52 = VERTEX_POINT ( 'NONE', #305 ) ;
#53 = APPLICATION_PROTOCOL_DEFINITION ( 'draft international standard', 'automotive_design', 1998, #42 ) ;
#54 = COLOUR_RGB ( '',0.7921568627450980005, 0.8196078431372548767, 0.9333333333333333481 ) ;
#55 = LINE ( 'NONE', #217, #224 ) ;
#56 = ADVANCED_FACE ( 'NONE', ( #109, #304 ), #137, .F. ) ;
#57 = CARTESIAN_POINT ( 'NONE',  ( 20.00000000000000355, -20.00000000000000000, 5.000000000000000000 ) ) ;
#58 = VECTOR ( 'NONE', #255, 1000.000000000000000 ) ;
#59 = FILL_AREA_STYLE_COLOUR ( '', #54 ) ;
#60 = EDGE_CURVE ( 'NONE', #93, #150, #244, .T. ) ;
#61 = SURFACE_STYLE_USAGE ( .BOTH. , #189 ) ;
#62 = ORIENTED_EDGE ( 'NONE', *, *, #313, .T. ) ;
#63 = MECHANICAL_DESIGN_GEOMETRIC_PRESENTATION_REPRESENTATION (  '', ( #21 ), #280 ) ;
#64 = CARTESIAN_POINT ( 'NONE',  ( -19.99999999999999645, -1.734723475976806897E-15, 0.000000000000000000 ) ) ;
#65 = LINE ( 'NONE', #302, #27 ) ;
#66 = CARTESIAN_POINT ( 'NONE',  ( -19.99999999999999645, -20.00000000000000000, 0.000000000000000000 ) ) ;
#67 = VERTEX_POINT ( 'NONE', #11 ) ;
#68 = LINE ( 'NONE', #13, #196 ) ;
#69 = AXIS2_PLACEMENT_3D ( 'NONE', #133, #238, #258 ) ;
#70 = ORIENTED_EDGE ( 'NONE', *, *, #71, .T. ) ;
#71 = EDGE_CURVE ( 'NONE', #8, #98, #218, .T. ) ;
#72 = DIRECTION ( 'NONE',  ( 0.000000000000000000, 0.000000000000000000, 1.000000000000000000 ) ) ;
#73 = EDGE_LOOP ( 'NONE', ( #199, #39, #249, #14 ) ) ;
#74 = ADVANCED_BREP_SHAPE_REPRESENTATION ( '02DesignFrame', ( #80, #251 ), #50 ) ;
#75 = LINE ( 'NONE', #236, #101 ) ;
#76 = LINE ( 'NONE', #184, #209 ) ;
#77 = FACE_BOUND ( 'NONE', #279, .T. ) ;
#78 = PRODUCT_DEFINITION_FORMATION_WITH_SPECIFIED_SOURCE ( 'ANY', '', #194, .NOT_KNOWN. ) ;
#79 = EDGE_CURVE ( 'NONE', #98, #150, #215, .T. ) ;
#80 = MANIFOLD_SOLID_BREP ( 'Boss-Extrude1', #10 ) ;
#81 = EDGE_LOOP ( 'NONE', ( #299, #228, #237, #297 ) ) ;
#82 = FILL_AREA_STYLE ('',( #59 ) ) ;
#83 = VECTOR ( 'NONE', #5, 1000.000000000000000 ) ;
#84 = ORIENTED_EDGE ( 'NONE', *, *, #45, .T. ) ;
#85 = CARTESIAN_POINT ( 'NONE',  ( -6.769652589177783879E-16, -7.999999999999998224, 5.000000000000000000 ) ) ;
#86 = DIRECTION ( 'NONE',  ( 0.000000000000000000, -1.000000000000000000, 0.000000000000000000 ) ) ;
#87 = VECTOR ( 'NONE', #315, 1000.000000000000000 ) ;
#88 = DIRECTION ( 'NONE',  ( 1.000000000000000000, 8.673617379884035472E-17, -0.000000000000000000 ) ) ;
#89 = EDGE_CURVE ( 'NONE', #204, #128, #242, .T. ) ;
#90 = LINE ( 'NONE', #141, #108 ) ;
#91 = EDGE_LOOP ( 'NONE', ( #226, #154, #144, #84 ) ) ;
#92 = DIRECTION ( 'NONE',  ( -0.000000000000000000, 0.000000000000000000, -1.000000000000000000 ) ) ;
#93 = VERTEX_POINT ( 'NONE', #139 ) ;
#94 = CARTESIAN_POINT ( 'NONE',  ( 0.000000000000000000, -20.00000000000000000, 5.000000000000000000 ) ) ;
#95 = VERTEX_POINT ( 'NONE', #146 ) ;
#96 = UNCERTAINTY_MEASURE_WITH_UNIT (LENGTH_MEASURE( 1.000000000000000082E-05 ), #208, 'distance_accuracy_value', 'NONE');
#97 = ORIENTED_EDGE ( 'NONE', *, *, #32, .T. ) ;
#98 = VERTEX_POINT ( 'NONE', #66 ) ;
#99 = CARTESIAN_POINT ( 'NONE',  ( -10.24999999999999822, -7.999999999999998224, 0.000000000000000000 ) ) ;
#100 = PLANE ( 'NONE',  #153 ) ;
#101 = VECTOR ( 'NONE', #234, 1000.000000000000000 ) ;
#102 = ORIENTED_EDGE ( 'NONE', *, *, #169, .F. ) ;
#103 = CARTESIAN_POINT ( 'NONE',  ( 10.25000000000000178, 8.000000000000000000, 5.000000000000000000 ) ) ;
#104 = APPLICATION_PROTOCOL_DEFINITION ( 'draft international standard', 'automotive_design', 1998, #323 ) ;
#105 = EDGE_LOOP ( 'NONE', ( #157, #207, #132, #135 ) ) ;
#106 = EDGE_CURVE ( 'NONE', #319, #24, #140, .T. ) ;
#107 = DIRECTION ( 'NONE',  ( 1.000000000000000000, 0.000000000000000000, 0.000000000000000000 ) ) ;
#108 = VECTOR ( 'NONE', #170, 1000.000000000000000 ) ;
#109 = FACE_OUTER_BOUND ( 'NONE', #112, .T. ) ;
#110 = DIRECTION ( 'NONE',  ( 0.000000000000000000, -1.000000000000000000, 0.000000000000000000 ) ) ;
#111 = PRODUCT_DEFINITION ( 'UNKNOWN', '', #78, #298 ) ;
#112 = EDGE_LOOP ( 'NONE', ( #311, #274, #235, #171 ) ) ;
#113 = AXIS2_PLACEMENT_3D ( 'NONE', #20, #152, #233 ) ;
#114 = CARTESIAN_POINT ( 'NONE',  ( 20.00000000000000355, 0.000000000000000000, 5.000000000000000000 ) ) ;
#115 = PLANE ( 'NONE',  #145 ) ;
#116 = EDGE_CURVE ( 'NONE', #8, #284, #90, .T. ) ;
#117 = PLANE ( 'NONE',  #161 ) ;
#118 = VECTOR ( 'NONE', #30, 1000.000000000000000 ) ;
#119 = DIRECTION ( 'NONE',  ( 1.000000000000000000, 0.000000000000000000, 0.000000000000000000 ) ) ;
#120 = ORIENTED_EDGE ( 'NONE', *, *, #45, .F. ) ;
#121 = FACE_OUTER_BOUND ( 'NONE', #46, .T. ) ;
#122 = EDGE_CURVE ( 'NONE', #168, #253, #167, .T. ) ;
#123 = ORIENTED_EDGE ( 'NONE', *, *, #106, .T. ) ;
#124 = DIRECTION ( 'NONE',  ( 0.000000000000000000, -0.000000000000000000, 1.000000000000000000 ) ) ;
#125 = ORIENTED_EDGE ( 'NONE', *, *, #79, .T. ) ;
#126 = AXIS2_PLACEMENT_3D ( 'NONE', #282, #306, #107 ) ;
#127 = DIRECTION ( 'NONE',  ( 8.462065736472231082E-17, 1.000000000000000000, -0.000000000000000000 ) ) ;
#128 = VERTEX_POINT ( 'NONE', #246 ) ;
#129 =( NAMED_UNIT ( * ) PLANE_ANGLE_UNIT ( ) SI_UNIT ( $, .RADIAN. ) );
#130 = ADVANCED_FACE ( 'NONE', ( #121 ), #115, .T. ) ;
#131 = DIRECTION ( 'NONE',  ( -0.000000000000000000, -0.000000000000000000, -1.000000000000000000 ) ) ;
#132 = ORIENTED_EDGE ( 'NONE', *, *, #106, .F. ) ;
#133 = CARTESIAN_POINT ( 'NONE',  ( 0.000000000000000000, 0.000000000000000000, 5.000000000000000000 ) ) ;
#134 = PRODUCT_CONTEXT ( 'NONE', #42, 'mechanical' ) ;
#135 = ORIENTED_EDGE ( 'NONE', *, *, #272, .T. ) ;
#136 = EDGE_CURVE ( 'NONE', #168, #294, #163, .T. ) ;
#137 = PLANE ( 'NONE',  #126 ) ;
#138 = CARTESIAN_POINT ( 'NONE',  ( -0.000000000000000000, 8.000000000000000000, 0.000000000000000000 ) ) ;
#139 = CARTESIAN_POINT ( 'NONE',  ( 20.00000000000000355, 20.00000000000000000, 0.000000000000000000 ) ) ;
#140 = LINE ( 'NONE', #265, #250 ) ;
#141 = CARTESIAN_POINT ( 'NONE',  ( 0.000000000000000000, -20.00000000000000000, 5.000000000000000000 ) ) ;
#142 = ORIENTED_EDGE ( 'NONE', *, *, #116, .F. ) ;
#143 = FACE_OUTER_BOUND ( 'NONE', #22, .T. ) ;
#144 = ORIENTED_EDGE ( 'NONE', *, *, #23, .T. ) ;
#145 = AXIS2_PLACEMENT_3D ( 'NONE', #312, #309, #273 ) ;
#146 = CARTESIAN_POINT ( 'NONE',  ( 10.25000000000000178, -8.000000000000000000, 0.000000000000000000 ) ) ;
#147 = ORIENTED_EDGE ( 'NONE', *, *, #116, .T. ) ;
#148 = CARTESIAN_POINT ( 'NONE',  ( 10.25000000000000178, 0.000000000000000000, 5.000000000000000000 ) ) ;
#149 = DIRECTION ( 'NONE',  ( 1.000000000000000000, -8.462065736472231082E-17, 0.000000000000000000 ) ) ;
#150 = VERTEX_POINT ( 'NONE', #227 ) ;
#151 = AXIS2_PLACEMENT_3D ( 'NONE', #198, #38, #291 ) ;
#152 = DIRECTION ( 'NONE',  ( 1.000000000000000000, 0.000000000000000000, -0.000000000000000000 ) ) ;
#153 = AXIS2_PLACEMENT_3D ( 'NONE', #211, #127, #257 ) ;
#154 = ORIENTED_EDGE ( 'NONE', *, *, #183, .F. ) ;
#155 = EDGE_CURVE ( 'NONE', #24, #67, #266, .T. ) ;
#156 = CARTESIAN_POINT ( 'NONE',  ( -0.000000000000000000, 20.00000000000000000, 0.000000000000000000 ) ) ;
#157 = ORIENTED_EDGE ( 'NONE', *, *, #89, .T. ) ;
#158 = ADVANCED_FACE ( 'NONE', ( #143 ), #225, .F. ) ;
#159 = DIRECTION ( 'NONE',  ( 1.000000000000000000, 0.000000000000000000, 0.000000000000000000 ) ) ;
#160 = CARTESIAN_POINT ( 'NONE',  ( -19.99999999999999645, -20.00000000000000000, 5.000000000000000000 ) ) ;
#161 = AXIS2_PLACEMENT_3D ( 'NONE', #310, #88, #290 ) ;
#162 =( LENGTH_UNIT ( ) NAMED_UNIT ( * ) SI_UNIT ( .MILLI., .METRE. ) );
#163 = LINE ( 'NONE', #15, #87 ) ;
#164 = ADVANCED_FACE ( 'NONE', ( #268 ), #17, .F. ) ;
#165 = PRESENTATION_LAYER_ASSIGNMENT (  '', '', ( #21 ) ) ;
#166 = DIRECTION ( 'NONE',  ( 8.673617379884035472E-17, -1.000000000000000000, 0.000000000000000000 ) ) ;
#167 = LINE ( 'NONE', #12, #301 ) ;
#168 = VERTEX_POINT ( 'NONE', #200 ) ;
#169 = EDGE_CURVE ( 'NONE', #168, #8, #229, .T. ) ;
#170 = DIRECTION ( 'NONE',  ( 1.000000000000000000, 0.000000000000000000, 0.000000000000000000 ) ) ;
#171 = ORIENTED_EDGE ( 'NONE', *, *, #300, .T. ) ;
#172 = VECTOR ( 'NONE', #222, 1000.000000000000000 ) ;
#173 = PLANE ( 'NONE',  #48 ) ;
#174 = ORIENTED_EDGE ( 'NONE', *, *, #169, .T. ) ;
#175 = ORIENTED_EDGE ( 'NONE', *, *, #281, .F. ) ;
#176 = FACE_OUTER_BOUND ( 'NONE', #73, .T. ) ;
#177 = EDGE_CURVE ( 'NONE', #319, #52, #248, .T. ) ;
#178 = ORIENTED_EDGE ( 'NONE', *, *, #89, .F. ) ;
#179 = VECTOR ( 'NONE', #166, 1000.000000000000000 ) ;
#180 = CARTESIAN_POINT ( 'NONE',  ( -19.99999999999999645, 20.00000000000000000, 0.000000000000000000 ) ) ;
#181 = DIRECTION ( 'NONE',  ( 1.000000000000000000, 0.000000000000000000, 0.000000000000000000 ) ) ;
#182 = ORIENTED_EDGE ( 'NONE', *, *, #177, .T. ) ;
#183 = EDGE_CURVE ( 'NONE', #294, #93, #68, .T. ) ;
#184 = CARTESIAN_POINT ( 'NONE',  ( -10.24999999999999822, 8.000000000000000000, 5.000000000000000000 ) ) ;
#185 = VECTOR ( 'NONE', #263, 1000.000000000000000 ) ;
#186 = CARTESIAN_POINT ( 'NONE',  ( -19.99999999999999645, -20.00000000000000000, 5.000000000000000000 ) ) ;
#187 = DIRECTION ( 'NONE',  ( -0.000000000000000000, -0.000000000000000000, -1.000000000000000000 ) ) ;
#188 = ADVANCED_FACE ( 'NONE', ( #203 ), #173, .T. ) ;
#189 = SURFACE_SIDE_STYLE ('',( #191 ) ) ;
#190 = VECTOR ( 'NONE', #181, 1000.000000000000000 ) ;
#191 = SURFACE_STYLE_FILL_AREA ( #82 ) ;
#192 = ADVANCED_FACE ( 'NONE', ( #223 ), #317, .F. ) ;
#193 = CARTESIAN_POINT ( 'NONE',  ( 0.000000000000000000, -20.00000000000000000, 0.000000000000000000 ) ) ;
#194 = PRODUCT ( '02DesignFrame', '02DesignFrame', '', ( #134 ) ) ;
#195 = LINE ( 'NONE', #64, #179 ) ;
#196 = VECTOR ( 'NONE', #287, 1000.000000000000000 ) ;
#197 = DIRECTION ( 'NONE',  ( 8.673617379884035472E-17, -1.000000000000000000, 0.000000000000000000 ) ) ;
#198 = CARTESIAN_POINT ( 'NONE',  ( 0.000000000000000000, 8.000000000000000000, 5.000000000000000000 ) ) ;
#199 = ORIENTED_EDGE ( 'NONE', *, *, #240, .F. ) ;
#200 = CARTESIAN_POINT ( 'NONE',  ( -19.99999999999999645, 20.00000000000000000, 5.000000000000000000 ) ) ;
#201 = VECTOR ( 'NONE', #303, 1000.000000000000000 ) ;
#202 = VECTOR ( 'NONE', #159, 1000.000000000000000 ) ;
#203 = FACE_OUTER_BOUND ( 'NONE', #81, .T. ) ;
#204 = VERTEX_POINT ( 'NONE', #245 ) ;
#205 = EDGE_CURVE ( 'NONE', #253, #98, #195, .T. ) ;
#206 = ORIENTED_EDGE ( 'NONE', *, *, #155, .F. ) ;
#207 = ORIENTED_EDGE ( 'NONE', *, *, #313, .F. ) ;
#208 =( LENGTH_UNIT ( ) NAMED_UNIT ( * ) SI_UNIT ( .MILLI., .METRE. ) );
#209 = VECTOR ( 'NONE', #131, 1000.000000000000000 ) ;
#210 = FACE_OUTER_BOUND ( 'NONE', #4, .T. ) ;
#211 = CARTESIAN_POINT ( 'NONE',  ( -6.769652589177783879E-16, -7.999999999999998224, 5.000000000000000000 ) ) ;
#212 = ORIENTED_EDGE ( 'NONE', *, *, #23, .F. ) ;
#213 = SHAPE_DEFINITION_REPRESENTATION ( #286, #74 ) ;
#214 = VECTOR ( 'NONE', #187, 1000.000000000000000 ) ;
#215 = LINE ( 'NONE', #193, #202 ) ;
#216 = LINE ( 'NONE', #57, #83 ) ;
#217 = CARTESIAN_POINT ( 'NONE',  ( -10.24999999999999822, -7.999999999999998224, 5.000000000000000000 ) ) ;
#218 = LINE ( 'NONE', #160, #214 ) ;
#219 = VECTOR ( 'NONE', #110, 1000.000000000000000 ) ;
#220 = ADVANCED_FACE ( 'NONE', ( #36 ), #117, .F. ) ;
#221 =( NAMED_UNIT ( * ) PLANE_ANGLE_UNIT ( ) SI_UNIT ( $, .RADIAN. ) );
#222 = DIRECTION ( 'NONE',  ( 1.084202172485504434E-16, -1.000000000000000000, 0.000000000000000000 ) ) ;
#223 = FACE_OUTER_BOUND ( 'NONE', #49, .T. ) ;
#224 = VECTOR ( 'NONE', #307, 1000.000000000000000 ) ;
#225 = PLANE ( 'NONE',  #289 ) ;
#226 = ORIENTED_EDGE ( 'NONE', *, *, #60, .F. ) ;
#227 = CARTESIAN_POINT ( 'NONE',  ( 20.00000000000000355, -20.00000000000000000, 0.000000000000000000 ) ) ;
#228 = ORIENTED_EDGE ( 'NONE', *, *, #122, .F. ) ;
#229 = LINE ( 'NONE', #269, #6 ) ;
#230 = ORIENTED_EDGE ( 'NONE', *, *, #51, .F. ) ;
#231 = UNCERTAINTY_MEASURE_WITH_UNIT (LENGTH_MEASURE( 1.000000000000000082E-05 ), #162, 'distance_accuracy_value', 'NONE');
#232 = VECTOR ( 'NONE', #31, 1000.000000000000000 ) ;
#233 = DIRECTION ( 'NONE',  ( -0.000000000000000000, 0.000000000000000000, -1.000000000000000000 ) ) ;
#234 = DIRECTION ( 'NONE',  ( -0.000000000000000000, -0.000000000000000000, -1.000000000000000000 ) ) ;
#235 = ORIENTED_EDGE ( 'NONE', *, *, #205, .F. ) ;
#236 = CARTESIAN_POINT ( 'NONE',  ( 10.25000000000000178, -8.000000000000000000, 5.000000000000000000 ) ) ;
#237 = ORIENTED_EDGE ( 'NONE', *, *, #136, .T. ) ;
#238 = DIRECTION ( 'NONE',  ( -0.000000000000000000, 0.000000000000000000, 1.000000000000000000 ) ) ;
#239 = LINE ( 'NONE', #285, #118 ) ;
#240 = EDGE_CURVE ( 'NONE', #318, #95, #65, .T. ) ;
#241 = AXIS2_PLACEMENT_3D ( 'NONE', #94, #296, #35 ) ;
#242 = LINE ( 'NONE', #138, #201 ) ;
#243 = ORIENTED_EDGE ( 'NONE', *, *, #136, .F. ) ;
#244 = LINE ( 'NONE', #9, #232 ) ;
#245 = CARTESIAN_POINT ( 'NONE',  ( -10.24999999999999822, 8.000000000000000000, 0.000000000000000000 ) ) ;
#246 = CARTESIAN_POINT ( 'NONE',  ( 10.25000000000000178, 8.000000000000000000, 0.000000000000000000 ) ) ;
#247 = ORIENTED_EDGE ( 'NONE', *, *, #2, .T. ) ;
#248 = LINE ( 'NONE', #293, #172 ) ;
#249 = ORIENTED_EDGE ( 'NONE', *, *, #51, .T. ) ;
#250 = VECTOR ( 'NONE', #119, 1000.000000000000000 ) ;
#251 = AXIS2_PLACEMENT_3D ( 'NONE', #260, #72, #28 ) ;
#252 = CARTESIAN_POINT ( 'NONE',  ( 10.25000000000000178, 0.000000000000000000, 5.000000000000000000 ) ) ;
#253 = VERTEX_POINT ( 'NONE', #180 ) ;
#254 = CARTESIAN_POINT ( 'NONE',  ( 0.000000000000000000, 20.00000000000000000, 5.000000000000000000 ) ) ;
#255 = DIRECTION ( 'NONE',  ( 0.000000000000000000, -1.000000000000000000, 0.000000000000000000 ) ) ;
#256 = ORIENTED_EDGE ( 'NONE', *, *, #155, .T. ) ;
#257 = DIRECTION ( 'NONE',  ( -1.000000000000000000, 8.462065736472231082E-17, 0.000000000000000000 ) ) ;
#258 = DIRECTION ( 'NONE',  ( 1.000000000000000000, 0.000000000000000000, 0.000000000000000000 ) ) ;
#259 =( NAMED_UNIT ( * ) SI_UNIT ( $, .STERADIAN. ) SOLID_ANGLE_UNIT ( ) );
#260 = CARTESIAN_POINT ( 'NONE',  ( 0.000000000000000000, 0.000000000000000000, 0.000000000000000000 ) ) ;
#261 = ORIENTED_EDGE ( 'NONE', *, *, #177, .F. ) ;
#262 = ADVANCED_FACE ( 'NONE', ( #210, #77 ), #275, .T. ) ;
#263 = DIRECTION ( 'NONE',  ( 1.000000000000000000, -8.462065736472231082E-17, 0.000000000000000000 ) ) ;
#264 = PRESENTATION_STYLE_ASSIGNMENT (( #61 ) ) ;
#265 = CARTESIAN_POINT ( 'NONE',  ( 0.000000000000000000, 8.000000000000000000, 5.000000000000000000 ) ) ;
#266 = LINE ( 'NONE', #148, #271 ) ;
#267 = EDGE_CURVE ( 'NONE', #67, #95, #75, .T. ) ;
#268 = FACE_OUTER_BOUND ( 'NONE', #105, .T. ) ;
#269 = CARTESIAN_POINT ( 'NONE',  ( -19.99999999999999645, -1.734723475976806897E-15, 5.000000000000000000 ) ) ;
#270 = ORIENTED_EDGE ( 'NONE', *, *, #71, .F. ) ;
#271 = VECTOR ( 'NONE', #86, 1000.000000000000000 ) ;
#272 = EDGE_CURVE ( 'NONE', #319, #204, #76, .T. ) ;
#273 = DIRECTION ( 'NONE',  ( -1.084202172485504434E-16, 1.000000000000000000, 0.000000000000000000 ) ) ;
#274 = ORIENTED_EDGE ( 'NONE', *, *, #79, .F. ) ;
#275 = PLANE ( 'NONE',  #69 ) ;
#276 = ORIENTED_EDGE ( 'NONE', *, *, #272, .F. ) ;
#277 = LINE ( 'NONE', #103, #295 ) ;
#278 = CARTESIAN_POINT ( 'NONE',  ( -10.24999999999999822, 8.000000000000000000, 5.000000000000000000 ) ) ;
#279 = EDGE_LOOP ( 'NONE', ( #123, #256, #230, #261 ) ) ;
#280 =( GEOMETRIC_REPRESENTATION_CONTEXT ( 3 ) GLOBAL_UNCERTAINTY_ASSIGNED_CONTEXT ( ( #231 ) ) GLOBAL_UNIT_ASSIGNED_CONTEXT ( ( #162, #221, #33 ) ) REPRESENTATION_CONTEXT ( 'NONE', 'WORKASPACE' ) );
#281 = EDGE_CURVE ( 'NONE', #128, #95, #3, .T. ) ;
#282 = CARTESIAN_POINT ( 'NONE',  ( 0.000000000000000000, 0.000000000000000000, 0.000000000000000000 ) ) ;
#283 = LINE ( 'NONE', #85, #185 ) ;
#284 = VERTEX_POINT ( 'NONE', #47 ) ;
#285 = CARTESIAN_POINT ( 'NONE',  ( -10.24999999999999822, -1.111307226797641848E-15, 0.000000000000000000 ) ) ;
#286 = PRODUCT_DEFINITION_SHAPE ( 'NONE', 'NONE',  #111 ) ;
#287 = DIRECTION ( 'NONE',  ( -0.000000000000000000, -0.000000000000000000, -1.000000000000000000 ) ) ;
#288 = PRODUCT_RELATED_PRODUCT_CATEGORY ( 'part', '', ( #194 ) ) ;
#289 = AXIS2_PLACEMENT_3D ( 'NONE', #252, #43, #92 ) ;
#290 = DIRECTION ( 'NONE',  ( -8.673617379884035472E-17, 1.000000000000000000, 0.000000000000000000 ) ) ;
#291 = DIRECTION ( 'NONE',  ( 0.000000000000000000, -0.000000000000000000, 1.000000000000000000 ) ) ;
#292 = EDGE_LOOP ( 'NONE', ( #316, #270, #102, #41 ) ) ;
#293 = CARTESIAN_POINT ( 'NONE',  ( -10.24999999999999822, -1.111307226797641848E-15, 5.000000000000000000 ) ) ;
#294 = VERTEX_POINT ( 'NONE', #25 ) ;
#295 = VECTOR ( 'NONE', #322, 1000.000000000000000 ) ;
#296 = DIRECTION ( 'NONE',  ( 0.000000000000000000, 1.000000000000000000, 0.000000000000000000 ) ) ;
#297 = ORIENTED_EDGE ( 'NONE', *, *, #183, .T. ) ;
#298 = PRODUCT_DEFINITION_CONTEXT ( 'detailed design', #323, 'design' ) ;
#299 = ORIENTED_EDGE ( 'NONE', *, *, #300, .F. ) ;
#300 = EDGE_CURVE ( 'NONE', #253, #93, #321, .T. ) ;
#301 = VECTOR ( 'NONE', #40, 1000.000000000000000 ) ;
#302 = CARTESIAN_POINT ( 'NONE',  ( -6.769652589177783879E-16, -7.999999999999998224, 0.000000000000000000 ) ) ;
#303 = DIRECTION ( 'NONE',  ( 1.000000000000000000, 0.000000000000000000, 0.000000000000000000 ) ) ;
#304 = FACE_BOUND ( 'NONE', #37, .T. ) ;
#305 = CARTESIAN_POINT ( 'NONE',  ( -10.24999999999999822, -7.999999999999998224, 5.000000000000000000 ) ) ;
#306 = DIRECTION ( 'NONE',  ( -0.000000000000000000, 0.000000000000000000, 1.000000000000000000 ) ) ;
#307 = DIRECTION ( 'NONE',  ( -0.000000000000000000, -0.000000000000000000, -1.000000000000000000 ) ) ;
#308 = ADVANCED_FACE ( 'NONE', ( #26 ), #1, .T. ) ;
#309 = DIRECTION ( 'NONE',  ( 1.000000000000000000, 1.084202172485504434E-16, -0.000000000000000000 ) ) ;
#310 = CARTESIAN_POINT ( 'NONE',  ( -19.99999999999999645, -1.734723475976806897E-15, 5.000000000000000000 ) ) ;
#311 = ORIENTED_EDGE ( 'NONE', *, *, #60, .T. ) ;
#312 = CARTESIAN_POINT ( 'NONE',  ( -10.24999999999999822, -1.111307226797641848E-15, 5.000000000000000000 ) ) ;
#313 = EDGE_CURVE ( 'NONE', #24, #128, #277, .T. ) ;
#314 = ORIENTED_EDGE ( 'NONE', *, *, #240, .T. ) ;
#315 = DIRECTION ( 'NONE',  ( 1.000000000000000000, 0.000000000000000000, 0.000000000000000000 ) ) ;
#316 = ORIENTED_EDGE ( 'NONE', *, *, #205, .T. ) ;
#317 = PLANE ( 'NONE',  #241 ) ;
#318 = VERTEX_POINT ( 'NONE', #99 ) ;
#319 = VERTEX_POINT ( 'NONE', #278 ) ;
#320 = ADVANCED_FACE ( 'NONE', ( #176 ), #100, .T. ) ;
#321 = LINE ( 'NONE', #156, #190 ) ;
#322 = DIRECTION ( 'NONE',  ( -0.000000000000000000, -0.000000000000000000, -1.000000000000000000 ) ) ;
#323 = APPLICATION_CONTEXT ( 'automotive_design' ) ;
ENDSEC;
END-ISO-10303-21;
