ISO-10303-21;
HEADER;
FILE_DESCRIPTION (( 'STEP AP214' ),
    '1' );
FILE_NAME ('03AccHolder.STEP',
    '2026-09-28T14:37:16',
    ( '' ),
    ( '' ),
    'SwSTEP 2.0',
    'SolidWorks 2026',
    '' );
FILE_SCHEMA (( 'AUTOMOTIVE_DESIGN' ));
ENDSEC;

DATA;
#1 = PRESENTATION_STYLE_ASSIGNMENT (( #127 ) ) ;
#2 = EDGE_CURVE ( 'NONE', #102, #236, #59, .T. ) ;
#3 = ORIENTED_EDGE ( 'NONE', *, *, #146, .T. ) ;
#4 = APPLICATION_PROTOCOL_DEFINITION ( 'draft international standard', 'automotive_design', 1998, #84 ) ;
#5 = EDGE_LOOP ( 'NONE', ( #310, #284, #156, #3 ) ) ;
#6 = PLANE ( 'NONE',  #52 ) ;
#7 = ADVANCED_FACE ( 'NONE', ( #136 ), #322, .F. ) ;
#8 = ORIENTED_EDGE ( 'NONE', *, *, #165, .F. ) ;
#9 = CARTESIAN_POINT ( 'NONE',  ( -6.769652589177783879E-16, -7.999999999999998224, 5.000000000000000000 ) ) ;
#10 = DIRECTION ( 'NONE',  ( -0.000000000000000000, -0.000000000000000000, -1.000000000000000000 ) ) ;
#11 = CIRCLE ( 'NONE', #198, 0.7496197819628278580 ) ;
#12 = CARTESIAN_POINT ( 'NONE',  ( -10.24999999999999822, -7.999999999999998224, 5.000000000000000000 ) ) ;
#13 = CARTESIAN_POINT ( 'NONE',  ( -10.24999999999999822, 8.000000000000000000, 0.000000000000000000 ) ) ;
#14 = LINE ( 'NONE', #64, #40 ) ;
#15 = CARTESIAN_POINT ( 'NONE',  ( -6.769652589177783879E-16, -7.999999999999998224, 0.000000000000000000 ) ) ;
#16 = DIRECTION ( 'NONE',  ( 1.000000000000000000, 1.084202172485504434E-16, -0.000000000000000000 ) ) ;
#17 = CARTESIAN_POINT ( 'NONE',  ( -9.422988214992681577, 6.769458289194036027, 0.000000000000000000 ) ) ;
#18 = EDGE_CURVE ( 'NONE', #21, #178, #218, .T. ) ;
#19 = AXIS2_PLACEMENT_3D ( 'NONE', #150, #177, #208 ) ;
#20 = DIRECTION ( 'NONE',  ( -0.000000000000000000, 0.000000000000000000, 1.000000000000000000 ) ) ;
#21 = VERTEX_POINT ( 'NONE', #166 ) ;
#22 = ORIENTED_EDGE ( 'NONE', *, *, #28, .T. ) ;
#23 = ORIENTED_EDGE ( 'NONE', *, *, #2, .T. ) ;
#24 = CIRCLE ( 'NONE', #290, 0.7496197819628260817 ) ;
#25 = UNCERTAINTY_MEASURE_WITH_UNIT (LENGTH_MEASURE( 1.000000000000000082E-05 ), #287, 'distance_accuracy_value', 'NONE');
#26 = ORIENTED_EDGE ( 'NONE', *, *, #57, .F. ) ;
#27 = ORIENTED_EDGE ( 'NONE', *, *, #262, .T. ) ;
#28 = EDGE_CURVE ( 'NONE', #86, #178, #85, .T. ) ;
#29 = CARTESIAN_POINT ( 'NONE',  ( 10.25000000000000178, 0.000000000000000000, 0.000000000000000000 ) ) ;
#30 = VECTOR ( 'NONE', #171, 1000.000000000000000 ) ;
#31 = DIRECTION ( 'NONE',  ( 0.000000000000000000, 1.000000000000000000, 0.000000000000000000 ) ) ;
#32 = DIRECTION ( 'NONE',  ( 8.462065736472231082E-17, 1.000000000000000000, -0.000000000000000000 ) ) ;
#33 = DIRECTION ( 'NONE',  ( 1.000000000000000000, 0.000000000000000000, 0.000000000000000000 ) ) ;
#34 = CARTESIAN_POINT ( 'NONE',  ( 10.25000000000000178, -8.000000000000000000, 5.000000000000000000 ) ) ;
#35 = CARTESIAN_POINT ( 'NONE',  ( 10.25000000000000178, -8.000000000000000000, 5.000000000000000000 ) ) ;
#36 = DIRECTION ( 'NONE',  ( 1.084202172485504434E-16, -1.000000000000000000, 0.000000000000000000 ) ) ;
#37 = ADVANCED_FACE ( 'NONE', ( #321 ), #6, .T. ) ;
#38 = CARTESIAN_POINT ( 'NONE',  ( 0.000000000000000000, 0.000000000000000000, 5.000000000000000000 ) ) ;
#39 = DIRECTION ( 'NONE',  ( -0.000000000000000000, 0.000000000000000000, 1.000000000000000000 ) ) ;
#40 = VECTOR ( 'NONE', #298, 1000.000000000000000 ) ;
#41 = DIRECTION ( 'NONE',  ( 1.084202172485504434E-16, -1.000000000000000000, 0.000000000000000000 ) ) ;
#42 = EDGE_CURVE ( 'NONE', #282, #209, #11, .T. ) ;
#43 = CARTESIAN_POINT ( 'NONE',  ( -6.769652589177783879E-16, -7.999999999999998224, 5.000000000000000000 ) ) ;
#44 = FILL_AREA_STYLE ('',( #179 ) ) ;
#45 = EDGE_LOOP ( 'NONE', ( #205, #180, #160, #69 ) ) ;
#46 = CLOSED_SHELL ( 'NONE', ( #330, #109, #48, #37, #159, #88, #7, #80, #154, #302 ) ) ;
#47 = VERTEX_POINT ( 'NONE', #34 ) ;
#48 = ADVANCED_FACE ( 'NONE', ( #292 ), #137, .T. ) ;
#49 = ORIENTED_EDGE ( 'NONE', *, *, #118, .T. ) ;
#50 =( NAMED_UNIT ( * ) SI_UNIT ( $, .STERADIAN. ) SOLID_ANGLE_UNIT ( ) );
#51 = VERTEX_POINT ( 'NONE', #87 ) ;
#52 = AXIS2_PLACEMENT_3D ( 'NONE', #58, #31, #184 ) ;
#53 = VERTEX_POINT ( 'NONE', #158 ) ;
#54 = DIRECTION ( 'NONE',  ( -0.000000000000000000, 0.000000000000000000, 1.000000000000000000 ) ) ;
#55 = ORIENTED_EDGE ( 'NONE', *, *, #146, .F. ) ;
#56 = DIRECTION ( 'NONE',  ( -1.000000000000000000, 0.000000000000000000, 0.000000000000000000 ) ) ;
#57 = EDGE_CURVE ( 'NONE', #296, #209, #212, .T. ) ;
#58 = CARTESIAN_POINT ( 'NONE',  ( 0.000000000000000000, 8.000000000000000000, 5.000000000000000000 ) ) ;
#59 = LINE ( 'NONE', #12, #311 ) ;
#60 = EDGE_CURVE ( 'NONE', #149, #53, #264, .T. ) ;
#61 = VECTOR ( 'NONE', #124, 1000.000000000000000 ) ;
#62 = LINE ( 'NONE', #199, #138 ) ;
#63 = CARTESIAN_POINT ( 'NONE',  ( 9.422988214992683353, 6.769458289194037803, 5.000000000000000000 ) ) ;
#64 = CARTESIAN_POINT ( 'NONE',  ( -10.24999999999999822, 8.000000000000000000, 5.000000000000000000 ) ) ;
#65 = DIRECTION ( 'NONE',  ( 1.000000000000000000, -8.462065736472231082E-17, 0.000000000000000000 ) ) ;
#66 = PRODUCT ( '03AccHolder', '03AccHolder', '', ( #186 ) ) ;
#67 = PRODUCT_DEFINITION ( 'UNKNOWN', '', #260, #100 ) ;
#68 = CARTESIAN_POINT ( 'NONE',  ( 8.673368433029855495, 6.769458289194037803, 0.000000000000000000 ) ) ;
#69 = ORIENTED_EDGE ( 'NONE', *, *, #28, .F. ) ;
#70 = CARTESIAN_POINT ( 'NONE',  ( -10.24999999999999822, 8.000000000000000000, 5.000000000000000000 ) ) ;
#71 = PRODUCT_RELATED_PRODUCT_CATEGORY ( 'part', '', ( #66 ) ) ;
#72 = ORIENTED_EDGE ( 'NONE', *, *, #289, .T. ) ;
#73 = VECTOR ( 'NONE', #144, 1000.000000000000000 ) ;
#74 =( NAMED_UNIT ( * ) SI_UNIT ( $, .STERADIAN. ) SOLID_ANGLE_UNIT ( ) );
#75 = ORIENTED_EDGE ( 'NONE', *, *, #105, .F. ) ;
#76 = ORIENTED_EDGE ( 'NONE', *, *, #200, .F. ) ;
#77 = LINE ( 'NONE', #332, #116 ) ;
#78 = ORIENTED_EDGE ( 'NONE', *, *, #57, .T. ) ;
#79 = STYLED_ITEM ( 'NONE', ( #1 ), #270 ) ;
#80 = ADVANCED_FACE ( 'NONE', ( #135 ), #108, .F. ) ;
#81 = ORIENTED_EDGE ( 'NONE', *, *, #255, .F. ) ;
#82 = DIRECTION ( 'NONE',  ( -0.000000000000000000, -0.000000000000000000, -1.000000000000000000 ) ) ;
#83 = FACE_OUTER_BOUND ( 'NONE', #45, .T. ) ;
#84 = APPLICATION_CONTEXT ( 'automotive_design' ) ;
#85 = CIRCLE ( 'NONE', #335, 0.7496197819628260817 ) ;
#86 = VERTEX_POINT ( 'NONE', #320 ) ;
#87 = CARTESIAN_POINT ( 'NONE',  ( -7.923748651067029414, 6.769458289194036027, 5.000000000000000000 ) ) ;
#88 = ADVANCED_FACE ( 'NONE', ( #83 ), #162, .F. ) ;
#89 = LINE ( 'NONE', #15, #240 ) ;
#90 = AXIS2_PLACEMENT_3D ( 'NONE', #328, #248, #117 ) ;
#91 = LINE ( 'NONE', #119, #30 ) ;
#92 = DIRECTION ( 'NONE',  ( 1.000000000000000000, 0.000000000000000000, 0.000000000000000000 ) ) ;
#93 = FACE_OUTER_BOUND ( 'NONE', #288, .T. ) ;
#94 = CARTESIAN_POINT ( 'NONE',  ( 8.673368433029855495, 6.769458289194037803, 5.000000000000000000 ) ) ;
#95 = PRODUCT_DEFINITION_SHAPE ( 'NONE', 'NONE',  #67 ) ;
#96 = FACE_BOUND ( 'NONE', #191, .T. ) ;
#97 = ORIENTED_EDGE ( 'NONE', *, *, #192, .F. ) ;
#98 = EDGE_CURVE ( 'NONE', #296, #210, #215, .T. ) ;
#99 = ORIENTED_EDGE ( 'NONE', *, *, #60, .F. ) ;
#100 = PRODUCT_DEFINITION_CONTEXT ( 'detailed design', #123, 'design' ) ;
#101 =( LENGTH_UNIT ( ) NAMED_UNIT ( * ) SI_UNIT ( .MILLI., .METRE. ) );
#102 = VERTEX_POINT ( 'NONE', #303 ) ;
#103 = EDGE_LOOP ( 'NONE', ( #8, #230, #128, #26 ) ) ;
#104 = EDGE_LOOP ( 'NONE', ( #97, #291, #78, #153 ) ) ;
#105 = EDGE_CURVE ( 'NONE', #236, #53, #89, .T. ) ;
#106 = EDGE_LOOP ( 'NONE', ( #316, #55, #72, #176 ) ) ;
#107 = AXIS2_PLACEMENT_3D ( 'NONE', #235, #174, #280 ) ;
#108 = CYLINDRICAL_SURFACE ( 'NONE', #317, 0.7496197819628278580 ) ;
#109 = ADVANCED_FACE ( 'NONE', ( #196 ), #329, .F. ) ;
#110 = DIRECTION ( 'NONE',  ( 1.000000000000000000, 0.000000000000000000, 0.000000000000000000 ) ) ;
#111 = DIRECTION ( 'NONE',  ( -1.000000000000000000, 8.462065736472231082E-17, 0.000000000000000000 ) ) ;
#112 = CIRCLE ( 'NONE', #304, 0.7496197819628278580 ) ;
#113 = DIRECTION ( 'NONE',  ( -0.000000000000000000, 0.000000000000000000, -1.000000000000000000 ) ) ;
#114 = PLANE ( 'NONE',  #148 ) ;
#115 = DIRECTION ( 'NONE',  ( -0.000000000000000000, -0.000000000000000000, -1.000000000000000000 ) ) ;
#116 = VECTOR ( 'NONE', #152, 1000.000000000000000 ) ;
#117 = DIRECTION ( 'NONE',  ( -1.000000000000000000, 0.000000000000000000, 0.000000000000000000 ) ) ;
#118 = EDGE_CURVE ( 'NONE', #47, #53, #323, .T. ) ;
#119 = CARTESIAN_POINT ( 'NONE',  ( 10.25000000000000178, 0.000000000000000000, 5.000000000000000000 ) ) ;
#120 = CARTESIAN_POINT ( 'NONE',  ( 10.25000000000000178, 8.000000000000000000, 5.000000000000000000 ) ) ;
#121 =( NAMED_UNIT ( * ) PLANE_ANGLE_UNIT ( ) SI_UNIT ( $, .RADIAN. ) );
#122 = AXIS2_PLACEMENT_3D ( 'NONE', #187, #294, #56 ) ;
#123 = APPLICATION_CONTEXT ( 'automotive_design' ) ;
#124 = DIRECTION ( 'NONE',  ( 1.000000000000000000, -8.462065736472231082E-17, 0.000000000000000000 ) ) ;
#125 = EDGE_LOOP ( 'NONE', ( #81, #157 ) ) ;
#126 = ORIENTED_EDGE ( 'NONE', *, *, #183, .F. ) ;
#127 = SURFACE_STYLE_USAGE ( .BOTH. , #201 ) ;
#128 = ORIENTED_EDGE ( 'NONE', *, *, #42, .T. ) ;
#129 = CARTESIAN_POINT ( 'NONE',  ( 9.422988214992683353, 6.769458289194037803, 0.000000000000000000 ) ) ;
#130 = EDGE_LOOP ( 'NONE', ( #185, #263, #333, #193 ) ) ;
#131 = CARTESIAN_POINT ( 'NONE',  ( 7.923748651067027637, 6.769458289194037803, 5.000000000000000000 ) ) ;
#132 = DIRECTION ( 'NONE',  ( 0.000000000000000000, -1.000000000000000000, 0.000000000000000000 ) ) ;
#133 = EDGE_CURVE ( 'NONE', #21, #51, #24, .T. ) ;
#134 = COLOUR_RGB ( '',0.7921568627450980005, 0.8196078431372548767, 0.9333333333333333481 ) ;
#135 = FACE_OUTER_BOUND ( 'NONE', #104, .T. ) ;
#136 = FACE_OUTER_BOUND ( 'NONE', #259, .T. ) ;
#137 = PLANE ( 'NONE',  #231 ) ;
#138 = VECTOR ( 'NONE', #41, 1000.000000000000000 ) ;
#139 = CARTESIAN_POINT ( 'NONE',  ( 9.422988214992683353, 6.769458289194037803, 5.000000000000000000 ) ) ;
#140 = DIRECTION ( 'NONE',  ( -1.084202172485504434E-16, 1.000000000000000000, 0.000000000000000000 ) ) ;
#141 = DIRECTION ( 'NONE',  ( 0.000000000000000000, -0.000000000000000000, -1.000000000000000000 ) ) ;
#142 = AXIS2_PLACEMENT_3D ( 'NONE', #313, #145, #285 ) ;
#143 = DIRECTION ( 'NONE',  ( -0.000000000000000000, 0.000000000000000000, 1.000000000000000000 ) ) ;
#144 = DIRECTION ( 'NONE',  ( -0.000000000000000000, -0.000000000000000000, -1.000000000000000000 ) ) ;
#145 = DIRECTION ( 'NONE',  ( -0.000000000000000000, -0.000000000000000000, -1.000000000000000000 ) ) ;
#146 = EDGE_CURVE ( 'NONE', #308, #227, #14, .T. ) ;
#147 = LINE ( 'NONE', #43, #61 ) ;
#148 = AXIS2_PLACEMENT_3D ( 'NONE', #197, #16, #140 ) ;
#149 = VERTEX_POINT ( 'NONE', #276 ) ;
#150 = CARTESIAN_POINT ( 'NONE',  ( -8.673368433029855495, 6.769458289194036027, 0.000000000000000000 ) ) ;
#151 = ORIENTED_EDGE ( 'NONE', *, *, #326, .F. ) ;
#152 = DIRECTION ( 'NONE',  ( -0.000000000000000000, -0.000000000000000000, -1.000000000000000000 ) ) ;
#153 = ORIENTED_EDGE ( 'NONE', *, *, #255, .T. ) ;
#154 = ADVANCED_FACE ( 'NONE', ( #93, #274, #300 ), #223, .T. ) ;
#155 = CARTESIAN_POINT ( 'NONE',  ( 0.000000000000000000, 8.000000000000000000, 5.000000000000000000 ) ) ;
#156 = ORIENTED_EDGE ( 'NONE', *, *, #247, .F. ) ;
#157 = ORIENTED_EDGE ( 'NONE', *, *, #42, .F. ) ;
#158 = CARTESIAN_POINT ( 'NONE',  ( 10.25000000000000178, -8.000000000000000000, 0.000000000000000000 ) ) ;
#159 = ADVANCED_FACE ( 'NONE', ( #251 ), #114, .F. ) ;
#160 = ORIENTED_EDGE ( 'NONE', *, *, #18, .T. ) ;
#161 = VECTOR ( 'NONE', #258, 1000.000000000000000 ) ;
#162 = CYLINDRICAL_SURFACE ( 'NONE', #122, 0.7496197819628260817 ) ;
#163 = APPLICATION_PROTOCOL_DEFINITION ( 'draft international standard', 'automotive_design', 1998, #123 ) ;
#164 = ORIENTED_EDGE ( 'NONE', *, *, #289, .F. ) ;
#165 = EDGE_CURVE ( 'NONE', #210, #296, #267, .T. ) ;
#166 = CARTESIAN_POINT ( 'NONE',  ( -9.422988214992681577, 6.769458289194036027, 5.000000000000000000 ) ) ;
#167 = LINE ( 'NONE', #252, #182 ) ;
#168 = LINE ( 'NONE', #275, #189 ) ;
#169 = LINE ( 'NONE', #63, #221 ) ;
#170 = VECTOR ( 'NONE', #214, 1000.000000000000000 ) ;
#171 = DIRECTION ( 'NONE',  ( 0.000000000000000000, -1.000000000000000000, 0.000000000000000000 ) ) ;
#172 = LINE ( 'NONE', #278, #73 ) ;
#173 = ORIENTED_EDGE ( 'NONE', *, *, #281, .T. ) ;
#174 = DIRECTION ( 'NONE',  ( -0.000000000000000000, 0.000000000000000000, 1.000000000000000000 ) ) ;
#175 = AXIS2_PLACEMENT_3D ( 'NONE', #38, #143, #324 ) ;
#176 = ORIENTED_EDGE ( 'NONE', *, *, #268, .T. ) ;
#177 = DIRECTION ( 'NONE',  ( -0.000000000000000000, 0.000000000000000000, 1.000000000000000000 ) ) ;
#178 = VERTEX_POINT ( 'NONE', #17 ) ;
#179 = FILL_AREA_STYLE_COLOUR ( '', #134 ) ;
#180 = ORIENTED_EDGE ( 'NONE', *, *, #326, .T. ) ;
#181 = ORIENTED_EDGE ( 'NONE', *, *, #105, .T. ) ;
#182 = VECTOR ( 'NONE', #36, 1000.000000000000000 ) ;
#183 = EDGE_CURVE ( 'NONE', #227, #236, #62, .T. ) ;
#184 = DIRECTION ( 'NONE',  ( 0.000000000000000000, -0.000000000000000000, 1.000000000000000000 ) ) ;
#185 = ORIENTED_EDGE ( 'NONE', *, *, #133, .T. ) ;
#186 = PRODUCT_CONTEXT ( 'NONE', #84, 'mechanical' ) ;
#187 = CARTESIAN_POINT ( 'NONE',  ( -8.673368433029855495, 6.769458289194036027, 5.000000000000000000 ) ) ;
#188 = VECTOR ( 'NONE', #195, 1000.000000000000000 ) ;
#189 = VECTOR ( 'NONE', #249, 1000.000000000000000 ) ;
#190 = DIRECTION ( 'NONE',  ( 0.000000000000000000, 0.000000000000000000, 1.000000000000000000 ) ) ;
#191 = EDGE_LOOP ( 'NONE', ( #173, #22 ) ) ;
#192 = EDGE_CURVE ( 'NONE', #210, #282, #169, .T. ) ;
#193 = ORIENTED_EDGE ( 'NONE', *, *, #18, .F. ) ;
#194 = CARTESIAN_POINT ( 'NONE',  ( -8.673368433029855495, 6.769458289194036027, 5.000000000000000000 ) ) ;
#195 = DIRECTION ( 'NONE',  ( -0.000000000000000000, -0.000000000000000000, -1.000000000000000000 ) ) ;
#196 = FACE_OUTER_BOUND ( 'NONE', #130, .T. ) ;
#197 = CARTESIAN_POINT ( 'NONE',  ( -10.24999999999999822, -1.111307226797641848E-15, 5.000000000000000000 ) ) ;
#198 = AXIS2_PLACEMENT_3D ( 'NONE', #213, #271, #272 ) ;
#199 = CARTESIAN_POINT ( 'NONE',  ( -10.24999999999999822, -1.111307226797641848E-15, 0.000000000000000000 ) ) ;
#200 = EDGE_CURVE ( 'NONE', #203, #47, #91, .T. ) ;
#201 = SURFACE_SIDE_STYLE ('',( #232 ) ) ;
#202 = ORIENTED_EDGE ( 'NONE', *, *, #60, .T. ) ;
#203 = VERTEX_POINT ( 'NONE', #120 ) ;
#204 = DIRECTION ( 'NONE',  ( 1.000000000000000000, 0.000000000000000000, 0.000000000000000000 ) ) ;
#205 = ORIENTED_EDGE ( 'NONE', *, *, #242, .F. ) ;
#206 = FACE_BOUND ( 'NONE', #125, .T. ) ;
#207 = ORIENTED_EDGE ( 'NONE', *, *, #133, .F. ) ;
#208 = DIRECTION ( 'NONE',  ( 1.000000000000000000, 0.000000000000000000, 0.000000000000000000 ) ) ;
#209 = VERTEX_POINT ( 'NONE', #305 ) ;
#210 = VERTEX_POINT ( 'NONE', #139 ) ;
#211 = AXIS2_PLACEMENT_3D ( 'NONE', #226, #20, #204 ) ;
#212 = LINE ( 'NONE', #131, #250 ) ;
#213 = CARTESIAN_POINT ( 'NONE',  ( 8.673368433029855495, 6.769458289194037803, 0.000000000000000000 ) ) ;
#214 = DIRECTION ( 'NONE',  ( -0.000000000000000000, -0.000000000000000000, -1.000000000000000000 ) ) ;
#215 = CIRCLE ( 'NONE', #225, 0.7496197819628278580 ) ;
#216 =( GEOMETRIC_REPRESENTATION_CONTEXT ( 3 ) GLOBAL_UNCERTAINTY_ASSIGNED_CONTEXT ( ( #25 ) ) GLOBAL_UNIT_ASSIGNED_CONTEXT ( ( #287, #228, #50 ) ) REPRESENTATION_CONTEXT ( 'NONE', 'WORKASPACE' ) );
#217 = UNCERTAINTY_MEASURE_WITH_UNIT (LENGTH_MEASURE( 1.000000000000000082E-05 ), #101, 'distance_accuracy_value', 'NONE');
#218 = LINE ( 'NONE', #318, #170 ) ;
#219 = CARTESIAN_POINT ( 'NONE',  ( -10.24999999999999822, -7.999999999999998224, 0.000000000000000000 ) ) ;
#220 = DIRECTION ( 'NONE',  ( 1.000000000000000000, 0.000000000000000000, 0.000000000000000000 ) ) ;
#221 = VECTOR ( 'NONE', #115, 1000.000000000000000 ) ;
#222 = DIRECTION ( 'NONE',  ( 0.000000000000000000, -0.000000000000000000, -1.000000000000000000 ) ) ;
#223 = PLANE ( 'NONE',  #175 ) ;
#224 = CARTESIAN_POINT ( 'NONE',  ( 8.673368433029855495, 6.769458289194037803, 5.000000000000000000 ) ) ;
#225 = AXIS2_PLACEMENT_3D ( 'NONE', #224, #246, #327 ) ;
#226 = CARTESIAN_POINT ( 'NONE',  ( 0.000000000000000000, 0.000000000000000000, 0.000000000000000000 ) ) ;
#227 = VERTEX_POINT ( 'NONE', #13 ) ;
#228 =( NAMED_UNIT ( * ) PLANE_ANGLE_UNIT ( ) SI_UNIT ( $, .RADIAN. ) );
#229 = ORIENTED_EDGE ( 'NONE', *, *, #306, .F. ) ;
#230 = ORIENTED_EDGE ( 'NONE', *, *, #192, .T. ) ;
#231 = AXIS2_PLACEMENT_3D ( 'NONE', #239, #245, #113 ) ;
#232 = SURFACE_STYLE_FILL_AREA ( #44 ) ;
#233 = AXIS2_PLACEMENT_3D ( 'NONE', #265, #190, #33 ) ;
#234 = EDGE_LOOP ( 'NONE', ( #314, #257 ) ) ;
#235 = CARTESIAN_POINT ( 'NONE',  ( -8.673368433029855495, 6.769458289194036027, 5.000000000000000000 ) ) ;
#236 = VERTEX_POINT ( 'NONE', #219 ) ;
#237 = DIRECTION ( 'NONE',  ( -0.000000000000000000, -0.000000000000000000, -1.000000000000000000 ) ) ;
#238 = SHAPE_DEFINITION_REPRESENTATION ( #95, #244 ) ;
#239 = CARTESIAN_POINT ( 'NONE',  ( 10.25000000000000178, 0.000000000000000000, 5.000000000000000000 ) ) ;
#240 = VECTOR ( 'NONE', #65, 1000.000000000000000 ) ;
#241 = DIRECTION ( 'NONE',  ( -1.000000000000000000, 0.000000000000000000, 0.000000000000000000 ) ) ;
#242 = EDGE_CURVE ( 'NONE', #51, #86, #172, .T. ) ;
#243 = EDGE_LOOP ( 'NONE', ( #202, #75, #126, #27 ) ) ;
#244 = ADVANCED_BREP_SHAPE_REPRESENTATION ( '03AccHolder', ( #270, #233 ), #216 ) ;
#245 = DIRECTION ( 'NONE',  ( 1.000000000000000000, 0.000000000000000000, -0.000000000000000000 ) ) ;
#246 = DIRECTION ( 'NONE',  ( 0.000000000000000000, -0.000000000000000000, -1.000000000000000000 ) ) ;
#247 = EDGE_CURVE ( 'NONE', #308, #102, #167, .T. ) ;
#248 = DIRECTION ( 'NONE',  ( -0.000000000000000000, -0.000000000000000000, -1.000000000000000000 ) ) ;
#249 = DIRECTION ( 'NONE',  ( 1.000000000000000000, 0.000000000000000000, 0.000000000000000000 ) ) ;
#250 = VECTOR ( 'NONE', #237, 1000.000000000000000 ) ;
#251 = FACE_OUTER_BOUND ( 'NONE', #5, .T. ) ;
#252 = CARTESIAN_POINT ( 'NONE',  ( -10.24999999999999822, -1.111307226797641848E-15, 5.000000000000000000 ) ) ;
#253 = FACE_OUTER_BOUND ( 'NONE', #243, .T. ) ;
#254 = CIRCLE ( 'NONE', #107, 0.7496197819628260817 ) ;
#255 = EDGE_CURVE ( 'NONE', #209, #282, #112, .T. ) ;
#256 = FACE_OUTER_BOUND ( 'NONE', #103, .T. ) ;
#257 = ORIENTED_EDGE ( 'NONE', *, *, #165, .T. ) ;
#258 = DIRECTION ( 'NONE',  ( 1.000000000000000000, 0.000000000000000000, 0.000000000000000000 ) ) ;
#259 = EDGE_LOOP ( 'NONE', ( #181, #286, #229, #23 ) ) ;
#260 = PRODUCT_DEFINITION_FORMATION_WITH_SPECIFIED_SOURCE ( 'ANY', '', #66, .NOT_KNOWN. ) ;
#261 = EDGE_LOOP ( 'NONE', ( #99, #297, #334, #49 ) ) ;
#262 = EDGE_CURVE ( 'NONE', #227, #149, #168, .T. ) ;
#263 = ORIENTED_EDGE ( 'NONE', *, *, #242, .T. ) ;
#264 = LINE ( 'NONE', #29, #325 ) ;
#265 = CARTESIAN_POINT ( 'NONE',  ( 0.000000000000000000, 0.000000000000000000, 0.000000000000000000 ) ) ;
#266 = CARTESIAN_POINT ( 'NONE',  ( -8.673368433029855495, 6.769458289194036027, 0.000000000000000000 ) ) ;
#267 = CIRCLE ( 'NONE', #283, 0.7496197819628278580 ) ;
#268 = EDGE_CURVE ( 'NONE', #203, #149, #77, .T. ) ;
#269 = ORIENTED_EDGE ( 'NONE', *, *, #247, .T. ) ;
#270 = MANIFOLD_SOLID_BREP ( 'Boss-Extrude1', #46 ) ;
#271 = DIRECTION ( 'NONE',  ( 0.000000000000000000, -0.000000000000000000, -1.000000000000000000 ) ) ;
#272 = DIRECTION ( 'NONE',  ( 1.000000000000000000, 0.000000000000000000, 0.000000000000000000 ) ) ;
#273 = CIRCLE ( 'NONE', #19, 0.7496197819628260817 ) ;
#274 = FACE_BOUND ( 'NONE', #293, .T. ) ;
#275 = CARTESIAN_POINT ( 'NONE',  ( -0.000000000000000000, 8.000000000000000000, 0.000000000000000000 ) ) ;
#276 = CARTESIAN_POINT ( 'NONE',  ( 10.25000000000000178, 8.000000000000000000, 0.000000000000000000 ) ) ;
#277 = PRESENTATION_LAYER_ASSIGNMENT (  '', '', ( #79 ) ) ;
#278 = CARTESIAN_POINT ( 'NONE',  ( -7.923748651067029414, 6.769458289194036027, 5.000000000000000000 ) ) ;
#279 = CARTESIAN_POINT ( 'NONE',  ( 7.923748651067027637, 6.769458289194037803, 5.000000000000000000 ) ) ;
#280 = DIRECTION ( 'NONE',  ( 1.000000000000000000, 0.000000000000000000, 0.000000000000000000 ) ) ;
#281 = EDGE_CURVE ( 'NONE', #178, #86, #273, .T. ) ;
#282 = VERTEX_POINT ( 'NONE', #129 ) ;
#283 = AXIS2_PLACEMENT_3D ( 'NONE', #94, #222, #92 ) ;
#284 = ORIENTED_EDGE ( 'NONE', *, *, #2, .F. ) ;
#285 = DIRECTION ( 'NONE',  ( -1.000000000000000000, 0.000000000000000000, 0.000000000000000000 ) ) ;
#286 = ORIENTED_EDGE ( 'NONE', *, *, #118, .F. ) ;
#287 =( LENGTH_UNIT ( ) NAMED_UNIT ( * ) SI_UNIT ( .MILLI., .METRE. ) );
#288 = EDGE_LOOP ( 'NONE', ( #76, #164, #269, #312 ) ) ;
#289 = EDGE_CURVE ( 'NONE', #308, #203, #315, .T. ) ;
#290 = AXIS2_PLACEMENT_3D ( 'NONE', #194, #39, #301 ) ;
#291 = ORIENTED_EDGE ( 'NONE', *, *, #98, .F. ) ;
#292 = FACE_OUTER_BOUND ( 'NONE', #261, .T. ) ;
#293 = EDGE_LOOP ( 'NONE', ( #207, #151 ) ) ;
#294 = DIRECTION ( 'NONE',  ( -0.000000000000000000, -0.000000000000000000, -1.000000000000000000 ) ) ;
#295 =( GEOMETRIC_REPRESENTATION_CONTEXT ( 3 ) GLOBAL_UNCERTAINTY_ASSIGNED_CONTEXT ( ( #217 ) ) GLOBAL_UNIT_ASSIGNED_CONTEXT ( ( #101, #121, #74 ) ) REPRESENTATION_CONTEXT ( 'NONE', 'WORKASPACE' ) );
#296 = VERTEX_POINT ( 'NONE', #279 ) ;
#297 = ORIENTED_EDGE ( 'NONE', *, *, #268, .F. ) ;
#298 = DIRECTION ( 'NONE',  ( -0.000000000000000000, -0.000000000000000000, -1.000000000000000000 ) ) ;
#299 = AXIS2_PLACEMENT_3D ( 'NONE', #9, #32, #111 ) ;
#300 = FACE_BOUND ( 'NONE', #234, .T. ) ;
#301 = DIRECTION ( 'NONE',  ( 1.000000000000000000, 0.000000000000000000, 0.000000000000000000 ) ) ;
#302 = ADVANCED_FACE ( 'NONE', ( #253, #96, #206 ), #309, .F. ) ;
#303 = CARTESIAN_POINT ( 'NONE',  ( -10.24999999999999822, -7.999999999999998224, 5.000000000000000000 ) ) ;
#304 = AXIS2_PLACEMENT_3D ( 'NONE', #68, #141, #220 ) ;
#305 = CARTESIAN_POINT ( 'NONE',  ( 7.923748651067027637, 6.769458289194037803, 0.000000000000000000 ) ) ;
#306 = EDGE_CURVE ( 'NONE', #102, #47, #147, .T. ) ;
#307 = CYLINDRICAL_SURFACE ( 'NONE', #142, 0.7496197819628278580 ) ;
#308 = VERTEX_POINT ( 'NONE', #70 ) ;
#309 = PLANE ( 'NONE',  #211 ) ;
#310 = ORIENTED_EDGE ( 'NONE', *, *, #183, .T. ) ;
#311 = VECTOR ( 'NONE', #10, 1000.000000000000000 ) ;
#312 = ORIENTED_EDGE ( 'NONE', *, *, #306, .T. ) ;
#313 = CARTESIAN_POINT ( 'NONE',  ( 8.673368433029855495, 6.769458289194037803, 5.000000000000000000 ) ) ;
#314 = ORIENTED_EDGE ( 'NONE', *, *, #98, .T. ) ;
#315 = LINE ( 'NONE', #155, #161 ) ;
#316 = ORIENTED_EDGE ( 'NONE', *, *, #262, .F. ) ;
#317 = AXIS2_PLACEMENT_3D ( 'NONE', #319, #82, #241 ) ;
#318 = CARTESIAN_POINT ( 'NONE',  ( -9.422988214992681577, 6.769458289194036027, 5.000000000000000000 ) ) ;
#319 = CARTESIAN_POINT ( 'NONE',  ( 8.673368433029855495, 6.769458289194037803, 5.000000000000000000 ) ) ;
#320 = CARTESIAN_POINT ( 'NONE',  ( -7.923748651067029414, 6.769458289194036027, 0.000000000000000000 ) ) ;
#321 = FACE_OUTER_BOUND ( 'NONE', #106, .T. ) ;
#322 = PLANE ( 'NONE',  #299 ) ;
#323 = LINE ( 'NONE', #35, #188 ) ;
#324 = DIRECTION ( 'NONE',  ( 1.000000000000000000, 0.000000000000000000, 0.000000000000000000 ) ) ;
#325 = VECTOR ( 'NONE', #132, 1000.000000000000000 ) ;
#326 = EDGE_CURVE ( 'NONE', #51, #21, #254, .T. ) ;
#327 = DIRECTION ( 'NONE',  ( 1.000000000000000000, 0.000000000000000000, 0.000000000000000000 ) ) ;
#328 = CARTESIAN_POINT ( 'NONE',  ( -8.673368433029855495, 6.769458289194036027, 5.000000000000000000 ) ) ;
#329 = CYLINDRICAL_SURFACE ( 'NONE', #90, 0.7496197819628260817 ) ;
#330 = ADVANCED_FACE ( 'NONE', ( #256 ), #307, .F. ) ;
#331 = MECHANICAL_DESIGN_GEOMETRIC_PRESENTATION_REPRESENTATION (  '', ( #79 ), #295 ) ;
#332 = CARTESIAN_POINT ( 'NONE',  ( 10.25000000000000178, 8.000000000000000000, 5.000000000000000000 ) ) ;
#333 = ORIENTED_EDGE ( 'NONE', *, *, #281, .F. ) ;
#334 = ORIENTED_EDGE ( 'NONE', *, *, #200, .T. ) ;
#335 = AXIS2_PLACEMENT_3D ( 'NONE', #266, #54, #110 ) ;
ENDSEC;
END-ISO-10303-21;
